<svg width="254" height="231" viewBox="0 0 254 231" fill="none" xmlns="http://www.w3.org/2000/svg">
<path fill-rule="evenodd" clip-rule="evenodd" d="M167.663 226.869C174.619 224.614 187.066 220.578 213.115 182.356C238.89 144.537 241.374 137.626 244.211 129.73C245.411 126.393 246.673 122.88 249.784 116.783C264.598 87.7517 230.652 54.0127 213.647 37.7596C210.975 35.2062 208.593 32.8328 206.377 30.6246C186.426 10.7443 179.903 4.2446 96.1999 0.209277C58.2297 -1.62126 28.0165 7.77609 14.9959 59.62C14.1683 62.915 13.3221 66.2249 12.4738 69.5431C-0.0259283 118.435 -12.9865 169.129 26.5824 200.291C62.3952 228.494 73.84 228.555 92.2902 228.653C95.6089 228.671 99.1542 228.69 103.109 228.874C123.861 229.84 159.519 230.934 163.16 228.874C164.379 227.934 165.831 227.464 167.663 226.869ZM197.239 116.927L189.002 119.1L188.991 119.113L188.362 123.854L183.14 127.209C183.611 115.547 182.982 109.61 177.12 110.007C172.216 110.403 170.64 112.972 169.365 121.074C169.275 121.72 169.173 122.367 169.071 123.011C168.646 125.706 168.227 128.362 168.735 130.755L139.438 140.641L139.602 139.65C140.242 127.988 139.29 117.317 130.106 116.921C124.244 116.722 118.854 124.838 118.224 136.494C117.907 140.449 118.224 144.207 118.7 147.561L91.6248 156.846L45.5416 139.643L42.0606 122.25L45.3882 107.233L46.9647 102.287L68.1838 88.0564C67.3902 87.6602 66.7607 86.8744 66.7607 85.8838L66.5967 81.1425C66.438 79.7623 67.3849 78.7718 68.4959 78.7718L79.2668 80.3633L90.8259 61.7742C91.4608 59.0007 95.4179 57.0328 101.909 55.6461L135.169 50.5019L164.148 55.2433C169.217 55.2433 173.491 57.2177 175.549 62.7581L182.987 78.9699L188.685 81.1425L193.123 88.4592L189.954 112.377L197.239 110.409V116.927ZM179.659 81.1623L169.999 62.5732L160.498 64.3562L163.027 85.9036L179.659 81.1623ZM158.911 87.0725L157.012 65.525H157.007L140.215 68.6815L130.878 92.7978L158.911 87.0725ZM97.0049 129.375L94.783 120.282V120.275H76.1085L74.8336 129.177L90.3551 133.72L97.0049 129.375ZM135.952 66.925L96.0421 61.3846H96.0368L81.7902 84.5235L124.551 92.6261L135.952 66.925ZM56.9209 139.657L72.6011 145.99H72.6064V138.085L57.0849 131.752L56.9209 139.657ZM48.3719 105.853L46.4727 115.342H46.478L49.0067 118.697L59.6136 122.652L59.931 113.368L48.3719 105.853ZM190.266 92.21H186.304H186.299L185.669 105.655H188.044L190.266 92.21ZM163.344 92.6162L163.339 92.6195H160.488L159.858 127.209L163.027 125.822L163.344 92.6162ZM130.249 121.074C134.682 121.477 137.687 130.181 137.057 140.647L137.063 140.641C136.274 150.929 132.312 159.23 127.725 159.23C123.281 159.23 119.959 150.526 120.753 139.855C121.382 128.979 125.816 120.671 130.249 121.074ZM177.448 113.771C180.612 114.16 182.511 120.883 182.035 128.787H182.045C181.564 136.5 178.876 143.018 175.866 143.018C172.697 143.018 170.481 136.302 170.957 128.001C171.428 119.899 174.438 113.374 177.448 113.771Z" fill="#D8D35F"/>
</svg>
