<svg width="278" height="229" viewBox="0 0 278 229" fill="none" xmlns="http://www.w3.org/2000/svg">
<path fill-rule="evenodd" clip-rule="evenodd" d="M161.892 1.7728C141.868 -1.14901 135.871 -1.36087 109.608 8.20085C66.4543 23.912 58.1113 30.3894 47.2182 38.8468C43.9307 41.3992 40.4109 44.132 35.6317 47.3534C6.46872 67.0107 -27.3084 134.424 35.6318 184.679C99.3134 235.527 117.305 230.542 136.105 225.332C141.936 223.716 147.844 222.079 155.218 222.079C178.338 222.079 197.763 211.986 215.3 202.874C219.28 200.806 223.162 198.788 226.968 196.951C263.137 179.492 293.588 140.104 268.128 85.9216C261.004 70.7605 257.719 58.9616 255.082 49.4892C249.688 30.1182 247.004 20.4763 219.738 11.707C204.322 6.74898 193.354 5.9041 183.615 5.1538C176.136 4.57763 169.381 4.05724 161.892 1.7728ZM142.37 86.2137V109.732L163.46 121.491C166.092 122.959 166.995 126.213 165.476 128.756C163.956 131.298 160.586 132.17 157.954 130.702L134.163 117.437C133.317 116.976 132.609 116.305 132.072 115.425C131.595 114.609 131.347 113.681 131.357 112.743V86.2137C131.357 83.2783 133.823 80.896 136.863 80.896C139.903 80.896 142.37 83.2783 142.37 86.2137ZM191.928 112.802C191.928 83.4326 167.275 59.625 136.863 59.625C106.451 59.625 81.7981 83.4326 81.7981 112.802C81.7981 142.172 106.451 165.98 136.863 165.98C167.275 165.98 191.928 142.172 191.928 112.802Z" fill="#E6DA68"/>
</svg>
