<svg width="784" height="401" viewBox="0 0 784 401" fill="none" xmlns="http://www.w3.org/2000/svg">
<path d="M346.726 131.376L343.349 135.877L341.099 138.128L336.598 140.603L335.922 142.629C335.922 142.629 334.121 144.43 334.347 145.556C334.573 146.682 334.573 148.707 334.573 148.707C334.573 148.707 331.422 151.633 330.071 152.533C328.72 153.433 326.919 155.459 326.919 155.459C326.919 155.459 325.794 156.81 325.119 157.26C324.444 157.709 323.319 159.06 322.418 160.411C321.517 161.762 320.617 162.661 320.167 163.336C319.717 164.011 318.366 165.587 317.691 168.063C317.016 170.54 315.215 173.465 315.215 173.465L314.764 174.59C314.99 178.417 314.989 179.092 315.44 180.443C315.89 181.793 316.341 181.342 315.89 184.269C315.44 187.194 315.44 188.32 314.99 189.671C314.54 191.02 313.189 193.496 312.74 194.623C312.289 195.748 313.64 197.773 313.64 197.773C313.64 197.773 314.316 200.7 313.865 201.375C313.415 202.051 314.09 203.401 314.09 203.401C314.09 203.401 316.791 204.976 317.692 205.877C318.592 206.777 320.168 208.128 320.393 208.803C320.619 209.479 322.419 212.63 322.644 213.305C322.869 213.98 324.67 216.455 325.12 217.131C325.57 217.807 327.821 220.283 327.821 220.283C327.821 220.283 330.747 222.532 331.423 223.433C332.098 224.333 334.124 224.783 334.798 225.458C335.474 226.133 337.049 225.907 337.949 226.584C338.85 227.259 340.65 226.133 341.551 226.584C342.451 227.034 344.928 226.134 345.603 225.684C346.278 225.234 347.853 223.659 348.979 224.333C350.104 225.007 350.779 224.333 351.68 224.558C352.579 224.783 353.93 223.659 354.83 223.659C355.731 223.659 357.981 222.758 358.656 222.758C359.332 222.758 361.583 221.406 362.484 221.406C363.383 221.406 364.509 220.508 365.634 220.957C366.759 221.406 366.309 220.058 368.335 220.732C370.361 221.406 371.036 220.732 371.711 221.406C372.387 222.082 373.288 221.408 373.963 222.308C374.638 223.207 375.763 223.882 375.988 224.783C376.212 225.684 377.563 226.585 377.563 226.585L378.914 226.809C378.914 226.809 380.716 225.459 381.165 226.36C381.615 227.26 383.641 227.036 383.641 227.036L385.666 229.286L386.342 230.186C386.342 230.186 387.693 233.788 387.467 235.138C387.242 236.488 387.242 239.414 386.567 240.089C385.892 240.765 385.442 243.691 385.442 243.691C385.442 243.691 384.541 244.591 386.567 246.392C388.593 248.194 389.944 249.768 390.619 250.667C391.295 251.568 393.096 254.045 393.319 255.62C393.545 257.195 393.995 258.095 394.896 260.121C395.796 262.147 396.921 262.372 397.146 264.624C397.372 266.874 397.821 266.875 397.596 268.449C397.371 270.025 396.696 270.25 397.371 271.375C398.046 272.501 398.945 274.527 398.722 275.202C398.497 275.877 398.046 278.803 398.046 278.803L397.596 280.154L395.571 283.982L394.22 286.006C393.77 287.581 392.87 289.157 393.095 291.408C393.319 293.659 391.97 293.658 393.77 295.908C395.571 298.16 396.47 300.636 397.596 302.662C398.722 304.687 399.397 306.713 399.621 308.063C399.847 309.414 400.747 309.865 401.197 311.665C401.646 313.466 401.872 314.365 401.872 315.491C401.872 316.616 401.646 319.543 402.098 320.218C402.547 320.893 402.773 322.92 402.998 323.82C403.223 324.721 402.322 324.946 403.673 326.522C405.024 328.097 405.924 328.997 406.824 330.123C407.724 331.249 407.499 330.798 408.175 332.374C408.85 333.949 409.75 334.851 409.976 336.2C410.201 337.55 410.425 340.926 411.101 342.502C411.776 344.078 412.676 345.654 412.676 345.654C412.676 345.654 415.153 347.229 416.053 347.004C416.952 346.779 418.754 344.755 420.105 345.429C421.456 346.104 422.581 345.429 423.706 345.429C424.831 345.429 425.957 344.078 427.083 344.078C428.208 344.078 429.783 342.277 430.685 342.728C431.585 343.177 432.709 342.276 433.835 341.151C434.961 340.027 435.636 339.127 437.661 337.326C439.687 335.525 439.462 335.524 440.812 334.399C442.163 333.273 443.514 330.797 445.089 330.347C446.664 329.897 447.114 328.323 447.564 327.197C448.015 326.071 448.239 325.396 448.915 324.495C449.591 323.596 449.14 324.723 450.266 321.795C451.392 318.868 452.744 317.744 453.869 317.068C454.994 316.393 455.669 315.043 456.344 314.817C457.019 314.591 458.145 315.492 457.695 313.466C457.246 311.441 457.695 308.515 457.246 307.84C456.795 307.163 456.119 309.414 456.345 306.037C456.572 302.662 459.046 299.285 459.046 299.285C459.046 299.285 462.422 295.009 463.548 294.334C464.674 293.659 464.898 292.984 466.475 292.083C468.049 291.184 471.426 288.933 471.426 287.807C471.426 286.681 472.777 283.755 472.777 283.079C472.777 282.404 472.777 281.729 472.328 277.902C471.877 274.077 472.777 274.976 471.427 271.375C470.077 267.774 469.85 263.272 468.951 262.147C468.05 261.021 468.5 258.094 468.5 257.195C468.5 256.295 470.077 254.044 470.752 253.144C471.427 252.243 474.353 248.641 474.353 248.641C474.353 248.641 478.854 243.465 480.43 240.99C482.006 238.513 483.581 236.263 484.706 235.363C485.832 234.463 488.533 232.435 490.108 230.185C491.684 227.935 494.835 223.659 495.061 222.982C495.285 222.308 497.085 220.057 497.085 220.057C497.085 220.057 499.561 217.13 500.012 215.555C500.461 213.979 502.711 205.201 502.261 205.651C501.813 206.102 499.111 206.551 498.21 206.776C497.311 207.002 499.562 207.901 493.033 207.452C486.507 207.001 483.131 208.127 483.131 208.127C481.104 207.676 479.529 209.927 478.853 206.776C478.178 203.626 477.727 201.825 476.378 199.574C475.027 197.323 474.126 196.423 472.102 193.496C470.077 190.571 470.3 191.92 468.499 189.671C466.699 187.42 466.248 188.094 465.123 185.169C463.998 182.243 463.098 183.369 461.747 179.317C460.396 175.264 459.496 174.814 458.821 172.564C458.145 170.314 457.246 169.637 456.795 167.612C456.345 165.586 451.169 155.233 450.493 154.557C449.817 153.883 448.692 150.28 448.917 150.956C449.143 151.631 452.294 153.882 452.294 153.882C452.294 153.882 454.094 153.206 454.77 153.206C455.445 153.206 458.146 155.683 458.146 156.582C458.146 157.483 462.875 161.76 463.999 164.911C465.124 168.062 466.477 170.313 466.7 171.213C466.923 172.113 469.176 175.715 470.077 177.066C470.976 178.417 473.902 181.117 474.352 182.468C474.802 183.819 479.08 188.32 479.08 191.246C479.08 194.172 481.104 197.998 481.33 198.898C481.556 199.798 485.606 200.925 485.606 200.925L491.009 199.574C491.009 199.574 499.111 194.396 500.012 194.396C500.911 194.396 508.116 191.02 508.116 191.02C508.116 191.02 511.041 188.32 513.066 186.745C515.092 185.169 517.343 182.244 517.794 180.892C518.243 179.541 519.144 179.317 520.944 177.29C522.745 175.264 525.221 173.239 523.646 171.888C522.07 170.538 521.169 170.988 518.919 168.737C516.668 166.487 516.893 166.937 515.317 164.01C513.741 161.085 515.542 157.708 512.165 161.085C508.79 164.461 510.14 165.361 506.763 166.038C503.388 166.712 502.036 168.963 500.461 166.712C498.886 164.461 497.311 165.812 496.409 162.435C495.509 159.059 494.833 158.833 494.609 157.484C494.385 156.133 494.609 156.133 492.808 152.756C491.008 149.38 492.358 144.203 493.483 147.129C494.609 150.055 496.409 150.505 499.336 152.531C502.261 154.556 503.613 156.133 506.313 156.358C509.014 156.582 511.265 156.358 511.715 156.807C512.165 157.258 512.615 156.583 513.741 157.032C514.867 157.483 515.315 156.358 515.766 158.157C516.216 159.958 518.692 160.183 519.817 161.308C520.943 162.433 520.943 161.984 523.87 162.433C526.797 162.884 530.849 162.884 530.849 162.884L535.124 162.658L540.076 163.107C540.076 163.107 543.679 165.133 544.578 165.133C545.478 165.133 545.703 167.61 547.954 168.96C550.205 170.311 550.655 170.535 552.005 172.111C553.358 173.687 553.131 174.362 554.931 175.937C556.733 177.514 559.66 175.713 560.11 175.039C560.558 174.363 562.809 173.238 562.361 175.039C561.91 176.839 564.61 176.163 563.935 180.441C563.26 184.716 562.809 183.591 563.935 186.518C565.06 189.444 570.012 198.447 570.238 201.148C570.464 203.849 571.813 202.949 572.038 205.426C572.264 207.901 573.613 208.801 573.613 210.602C573.613 212.403 575.19 212.852 575.414 214.204C575.641 215.555 578.116 214.428 578.791 214.204C579.467 213.978 582.617 211.052 582.617 211.052C582.617 211.052 583.97 210.603 583.743 208.351C583.517 206.102 583.743 206.551 583.743 203.175C583.743 199.799 582.393 199.799 583.068 196.424C583.743 193.048 585.543 191.021 585.994 189.446C586.444 187.871 588.245 185.17 589.144 184.944C590.044 184.719 594.997 182.244 596.123 180.667C597.248 179.092 599.049 177.291 600.85 175.491C602.65 173.691 605.801 171.44 606.477 172.115C607.152 172.79 606.927 172.565 608.053 172.565C609.178 172.565 611.204 173.466 612.779 173.691C614.355 173.916 617.507 177.742 618.182 179.768C618.857 181.794 618.407 181.343 620.883 184.27C623.359 187.195 625.61 185.394 625.61 188.996C625.61 192.598 625.61 192.372 626.736 193.723C627.861 195.074 629.211 191.247 630.561 191.698C631.911 192.149 632.136 191.248 633.261 194.849C634.386 198.451 635.061 198.451 635.288 202.052C635.512 205.653 635.062 202.277 635.062 205.202C635.062 208.129 634.836 208.354 635.288 211.054C635.737 213.757 637.311 214.657 637.088 215.107C637.088 215.107 638.438 211.281 637.987 208.579C637.539 205.879 637.987 202.053 639.113 200.928C640.238 199.801 641.365 198.677 642.264 201.603C643.165 204.528 643.615 202.278 645.64 205.654C647.667 209.031 649.467 208.354 649.692 209.93C649.917 211.506 651.045 211.732 652.618 213.081C654.194 214.432 655.544 212.857 657.345 211.506C659.147 210.155 664.097 205.203 664.324 203.177C664.548 201.152 666.574 201.601 662.972 196.426C659.37 191.249 659.37 189.448 655.544 186.297C651.72 183.146 649.468 182.921 652.395 178.869C655.321 174.817 656.672 172.117 658.472 173.243C660.273 174.368 663.422 174.142 663.422 178.645C663.422 183.146 662.522 188.098 665.673 182.696C668.824 177.294 670.401 174.143 669.499 175.045C668.6 175.945 671.525 173.244 671.525 173.244C671.525 173.244 671.751 171.218 675.578 170.318C679.403 169.416 680.528 168.967 681.88 168.292C683.23 167.616 687.057 163.114 687.732 161.089C688.407 159.063 690.208 155.462 689.758 153.887C689.308 152.31 687.056 144.659 686.606 144.883C686.157 145.109 686.382 145.109 683.457 141.958C680.529 138.807 678.504 136.556 678.054 135.205C677.604 133.854 676.478 133.629 677.828 131.829C679.18 130.029 679.855 130.254 680.08 128.678C680.304 127.103 682.104 125.752 678.728 126.878C675.353 128.003 677.828 127.329 674.902 127.104C671.976 126.878 664.324 128.679 668.151 123.953C671.976 119.226 673.1 116.301 673.776 116.301C674.453 116.301 677.829 112.474 678.053 116.075C678.279 119.676 679.628 118.775 679.854 121.026C680.08 123.277 684.581 118.551 684.581 118.551C684.581 118.551 686.156 119.001 687.281 120.126C688.407 121.251 688.407 124.853 688.407 124.853C688.407 124.853 687.507 123.727 689.983 125.528C692.46 127.33 695.159 126.428 695.159 130.255C695.159 134.081 695.159 134.307 696.735 135.207C698.312 136.107 699.885 135.658 701.238 134.532C702.588 133.407 704.838 129.355 704.838 129.355C704.838 129.355 705.063 127.779 701.462 125.528C697.861 123.278 695.61 121.703 694.261 120.577C692.909 119.452 693.36 116.076 694.709 114.724C696.062 113.373 696.735 112.698 696.285 110.898C695.834 109.096 696.961 107.746 700.337 107.971C703.713 108.197 704.388 107.747 704.388 107.747C704.388 107.747 705.065 108.196 705.065 106.846C705.065 105.496 709.34 99.1926 708.214 99.1926C707.089 99.1926 708.442 97.6176 707.764 95.1416C707.089 92.6646 710.015 88.8396 707.54 87.0386C705.064 85.2376 704.388 84.3366 702.813 81.6366C701.238 78.9346 701.461 78.4856 695.61 77.8096C689.758 77.1346 687.057 79.1606 685.706 77.3606C684.355 75.5596 683.681 80.0606 682.781 74.6586C681.881 69.2566 684.132 65.6546 684.132 65.6546C684.132 65.6546 687.733 63.4046 688.632 61.8286C689.532 60.2526 693.133 59.5776 696.062 60.7036C698.988 61.8286 703.263 61.6036 706.866 62.2806C710.467 62.9546 710.242 65.2056 712.043 62.2806C713.843 59.3526 712.043 58.0036 713.393 56.4276C714.745 54.8516 716.319 52.3756 717.444 53.9506C718.569 55.5276 720.823 57.1016 722.624 55.0756C724.424 53.0506 725.099 52.8256 725.099 52.8256L725.997 53.7266C725.997 53.7266 728.023 52.5996 728.023 54.6246C728.023 56.6516 730.05 58.9026 728.924 60.4776C727.797 62.0546 726.224 61.8286 726.224 65.6546C726.224 69.4826 726.224 68.8066 728.698 71.9586C731.175 75.1086 732.75 72.4076 733.2 75.7846C733.651 79.1606 734.099 78.4866 736.577 80.7366C739.053 82.9866 738.601 82.9866 740.403 84.3376C742.204 85.6886 743.105 87.0396 743.105 84.7886C743.105 82.5376 743.33 81.4126 743.105 79.3866C742.878 77.3616 744.906 75.7846 743.553 72.4086C742.203 69.0326 743.329 69.2576 740.628 66.7816C737.926 64.3066 736.125 67.2326 735.227 63.6306C734.326 60.0296 739.502 58.4536 740.854 58.0036C742.204 57.5546 744.228 54.8526 744.678 56.6536C745.129 58.4536 741.303 64.9816 747.831 58.0036C754.357 51.0266 751.432 53.9526 751.432 53.9526C751.432 53.9526 754.808 53.5026 755.483 53.9526C756.157 54.4036 757.961 51.9266 757.283 52.1526C756.608 52.3786 750.083 48.5506 750.083 48.5506L745.354 45.8506C745.354 45.8506 746.931 44.7246 748.056 44.9506C749.182 45.1756 749.408 42.6996 750.534 42.4736C751.659 42.2486 759.311 44.0506 760.888 44.9506C762.463 45.8506 768.089 46.0756 767.413 45.6256C766.738 45.1746 763.138 42.4746 762.912 41.5736C762.688 40.6736 754.809 38.8726 752.334 39.0976C749.857 39.3216 747.608 39.9966 745.582 39.3216C743.555 38.6466 740.63 36.8456 739.054 36.8456C737.479 36.8456 717.672 33.0196 716.772 33.2446C715.872 33.4696 714.52 37.7456 713.845 37.0706C713.17 36.3956 712.045 36.3946 708.892 35.4946C705.743 34.5946 701.465 33.9186 695.837 33.4696C690.211 33.0196 686.386 33.9196 684.81 32.1186C683.234 30.3186 679.859 30.9936 676.032 30.7676C672.206 30.5436 667.704 30.7676 665.678 30.7676C663.652 30.7676 658.927 30.5436 657.801 30.3176C656.675 30.0916 655.325 28.5166 653.975 28.2926C652.623 28.0666 652.848 27.6176 650.148 27.1676C647.447 26.7166 647.672 23.7916 646.772 26.2666C645.872 28.7436 646.321 28.0676 644.971 28.9676C643.62 29.8686 642.27 31.6686 641.369 31.6686C640.47 31.6686 636.869 31.8936 636.192 31.4436C635.516 30.9936 634.391 30.5436 632.14 30.5436C629.889 30.5436 629.889 30.7676 626.963 30.3176C624.037 29.8676 621.786 30.0916 619.085 28.7426C616.384 27.3916 616.384 26.4916 614.133 26.7166C611.884 26.9426 611.884 26.2666 608.731 26.2666C605.581 26.2666 601.755 28.0676 599.728 28.2926C597.704 28.5176 593.202 28.0666 591.626 27.3916C590.049 26.7166 589.6 25.1416 583.747 25.8156C577.895 26.4916 574.519 26.4916 575.644 24.6906C576.77 22.8906 578.12 21.0896 578.795 20.8646C579.471 20.6396 581.045 19.5146 579.919 19.0646C578.795 18.6136 577.669 17.9396 574.969 17.7136C572.267 17.4886 572.491 18.6136 568.441 18.1636C564.39 17.7136 570.692 16.5886 562.365 16.8136C554.037 17.0396 552.011 17.7136 551.111 17.7136C550.21 17.7136 549.084 15.9136 546.834 18.6136C544.583 21.3146 541.43 22.8896 536.93 23.1146C532.429 23.3406 532.203 22.6646 527.928 24.2396C523.651 25.8146 520.949 23.7896 521.85 27.3906C522.749 30.9916 523.876 32.3426 523.876 33.0176C523.876 33.6926 521.85 38.1946 519.375 35.4936C516.897 32.7926 512.396 22.2136 514.422 29.4166C516.447 36.6186 520.948 39.0956 516.673 40.2206C512.397 41.3456 512.845 39.7706 512.17 39.3196C511.496 38.8696 512.17 35.7186 511.945 33.9176C511.719 32.1176 511.27 30.9916 510.37 30.0916C509.471 29.1906 509.694 27.8406 507.894 27.3906C506.093 26.9406 507.669 26.0396 504.743 26.0396C501.817 26.0396 499.342 24.2386 500.017 28.2906C500.691 32.3416 501.366 29.6416 503.166 33.4676C504.966 37.2936 508.343 34.5926 505.868 37.2936C503.392 39.9946 496.865 39.0946 495.289 37.9696C493.713 36.8436 494.164 38.4196 491.236 36.3936C488.31 34.3676 489.212 32.7916 485.836 34.3676C482.46 35.9436 481.334 38.8696 479.983 37.7436C478.632 36.6176 475.482 39.3186 474.356 37.9696C473.23 36.6186 468.728 36.6186 467.829 37.9696C466.928 39.3196 464.227 39.0946 460.401 40.8956C456.575 42.6956 457.699 41.1196 452.973 44.9466C448.245 48.7726 445.544 51.9236 443.97 49.4476C442.394 46.9726 433.84 42.6956 437.217 42.0196C440.594 41.3446 442.169 39.9946 443.97 41.5696C445.771 43.1446 448.698 42.6956 449.146 41.5696C449.596 40.4436 451.623 39.3186 448.921 37.9686C446.22 36.6176 445.995 37.5176 441.719 35.9426C437.442 34.3666 441.719 34.8176 435.866 33.9166C430.014 33.0166 427.537 32.5666 425.962 32.1166C424.388 31.6666 422.136 32.1166 419.886 31.8916C417.634 31.6666 416.06 31.2166 414.033 31.4416C412.008 31.6666 410.883 31.2166 408.181 33.2426C405.479 35.2686 403.453 36.1686 401.653 37.7436C399.853 39.3186 395.127 42.4706 393.776 43.5966C392.425 44.7216 387.698 48.3226 387.248 49.6736C386.798 51.0246 387.698 52.1496 385.897 53.0496C384.096 53.9496 382.296 53.9496 380.945 54.1746C379.594 54.3996 380.945 52.1486 379.594 54.3996C378.244 56.6506 378.694 64.7536 379.819 63.6276C380.944 62.5016 380.269 58.9016 385.221 62.2786C390.173 65.6536 393.325 65.2036 393.099 68.3546C392.874 71.5056 396.475 71.2806 396.925 71.9566C397.375 72.6306 399.626 71.0556 399.626 71.0556C399.626 71.0556 404.578 67.9046 404.578 66.3296C404.578 64.7536 407.729 61.1526 407.729 61.1526C407.729 61.1526 405.477 60.0276 405.477 57.7766C405.477 55.5266 406.154 54.8496 406.603 52.5986C407.053 50.3486 404.127 52.5996 410.88 48.3216C417.631 44.0456 418.082 46.9726 418.082 46.9726C418.082 46.9726 418.981 47.8726 417.856 49.2226C416.731 50.5736 414.705 54.1756 414.255 54.6246C413.804 55.0756 416.281 58.6766 417.405 58.6766C418.531 58.6766 420.782 57.7756 422.133 58.0006C423.484 58.2266 425.734 57.3266 426.409 57.7766C427.085 58.2266 428.66 59.5766 427.534 60.7026C426.409 61.8276 423.932 63.1776 422.133 62.7286C420.331 62.2796 417.63 59.1266 419.206 63.6286C420.782 68.1306 418.981 69.2556 417.63 69.0306C416.281 68.8056 413.354 66.5556 413.804 69.9316C414.255 73.3066 410.879 75.5576 410.203 75.5576C409.527 75.5576 408.178 75.3326 408.178 75.3326C408.178 75.3326 406.151 75.1066 405.027 75.1066C403.901 75.1066 401.65 76.2316 400.975 77.1326C400.299 78.0326 399.399 77.3586 398.274 77.3586C397.149 77.3586 398.274 76.0076 396.023 75.5576C393.773 75.1076 392.422 74.6576 391.072 75.5576C389.721 76.4576 387.696 76.9076 386.795 76.2326C385.895 75.5576 387.246 73.9806 385.444 74.8826C383.644 75.7826 382.293 78.2586 381.618 78.4846C380.943 78.7086 383.644 78.4846 380.943 78.7086C378.242 78.9346 377.117 79.6106 375.766 80.0596C374.415 80.5106 376.216 83.2106 373.74 84.1106C371.264 85.0106 373.066 82.9856 370.589 85.0106C368.113 87.0376 367.662 88.8376 366.763 89.0626C365.862 89.2886 366.088 89.7376 364.062 89.9626C362.036 90.1876 362.262 90.4126 361.135 90.6376C360.01 90.8626 361.361 91.3136 358.885 90.8626C356.408 90.4126 354.608 91.3136 355.058 92.2136C355.508 93.1136 363.836 95.5896 357.534 95.3646C351.232 95.1396 353.258 96.2646 354.608 97.1646C355.959 98.0646 356.633 98.9646 357.309 99.1906C357.985 99.4156 359.109 102.118 359.109 102.118C359.109 102.118 360.91 101.892 359.785 103.468C358.66 105.044 360.235 105.494 359.109 107.52C357.984 109.546 357.984 108.195 357.084 108.645C356.184 109.094 354.833 110.671 352.356 109.32C349.88 107.969 348.081 107.294 345.154 107.07C342.228 106.844 344.253 106.395 342.228 107.969C340.202 109.546 339.752 111.346 339.978 113.371C340.203 115.396 340.428 118.098 339.752 119.449C339.077 120.799 339.077 122.15 339.526 124.176C339.977 126.201 341.328 127.103 341.328 127.103C341.328 127.103 344.479 127.552 345.154 127.778C345.829 128.003 347.18 127.328 348.98 128.452C350.781 129.578 352.582 130.029 353.707 128.678C354.832 127.328 359.334 125.752 360.686 124.402C362.036 123.051 362.936 122.602 362.261 121.251C361.586 119.9 363.612 116.524 364.737 115.849C365.862 115.174 368.338 114.498 368.338 114.498L371.039 110.447C371.039 110.447 373.29 107.97 374.415 108.196C375.54 108.421 381.842 110.673 381.393 107.747C380.943 104.82 381.843 103.92 382.518 105.045C383.193 106.17 384.994 105.72 384.994 105.72C384.994 105.72 385.894 105.271 386.569 105.946C387.244 106.62 388.144 109.548 389.495 110.222C390.846 110.898 391.971 111.573 392.872 112.022C393.772 112.473 394.673 112.022 396.474 113.598C398.274 115.174 400.075 116.075 400.299 116.749C400.526 117.424 402.101 119 402.101 119C402.101 119 403.676 119.45 403.226 120.351C402.776 121.251 400.526 123.953 399.4 124.402C398.274 124.852 395.349 123.951 396.474 124.852C397.598 125.752 399.175 126.878 399.85 126.202C400.526 125.527 404.801 121.025 404.801 121.025C404.801 121.025 404.576 121.25 404.801 119.899C405.027 118.55 404.801 116.974 405.927 117.649C407.052 118.325 407.728 119.225 408.178 118.325C408.628 117.424 409.078 117.875 407.952 117.2C406.826 116.524 404.126 112.698 402.775 112.473C401.424 112.247 398.047 109.996 398.047 109.996C398.047 109.996 397.373 109.321 395.797 107.521C394.221 105.72 393.772 106.17 393.32 104.594C392.871 103.019 391.519 100.993 393.996 101.443C396.473 101.893 398.047 103.468 400.298 104.819C402.549 106.17 402.1 106.619 404.125 107.97C406.15 109.321 406.377 110.672 407.951 110.447C409.526 110.222 411.328 111.347 411.328 113.373C411.328 115.399 411.777 117.649 412.227 118.1C412.678 118.551 414.027 119.451 414.478 120.351C414.928 121.251 415.829 123.502 416.503 124.402C417.179 125.302 417.854 125.978 418.529 127.104C419.204 128.229 419.429 126.878 420.104 127.329C420.78 127.779 421.68 127.553 421.68 126.653C421.68 125.753 421.904 124.177 421.904 124.177C421.904 124.177 425.057 123.277 424.157 122.826C423.256 122.376 420.554 119.675 420.78 118.775C421.005 117.875 420.78 116.075 421.904 116.3C423.03 116.524 424.156 118.55 426.632 116.749C429.108 114.948 432.034 114.048 431.133 116.749C430.234 119.45 431.36 119.899 431.133 122.826C430.909 125.753 432.035 124.852 433.611 126.428C435.186 128.004 436.311 128.23 437.436 128.679C438.562 129.13 440.362 128.905 442.164 129.13C443.965 129.355 445.09 128.454 446.666 128.905C448.24 129.355 451.842 128.679 452.518 129.13C453.194 129.58 455.895 128.23 456.119 129.805C456.344 131.381 457.245 129.58 456.57 133.181C455.895 136.782 454.994 139.258 454.994 139.258C452.518 143.985 451.618 145.111 450.492 145.336C449.368 145.561 448.692 146.236 446.667 146.011C444.641 145.785 442.165 146.011 439.239 145.336C436.313 144.66 430.91 146.011 428.66 144.66C426.409 143.31 423.258 144.435 421.906 142.86C420.556 141.284 418.306 141.509 417.405 140.609C416.505 139.709 416.055 137.234 416.055 140.835C416.055 144.437 414.029 144.661 413.579 146.462C413.128 148.262 414.253 147.362 411.777 147.137C409.301 146.911 408.626 148.262 405.025 145.562C401.423 142.861 399.623 142.861 397.823 141.735C396.021 140.609 394.221 143.76 392.421 140.16C390.62 136.558 388.144 139.484 387.919 136.558C387.694 133.631 387.919 133.858 388.144 132.057C388.371 130.256 390.845 128.681 389.72 128.006C388.594 127.331 389.494 126.205 387.919 126.881C386.343 127.556 384.093 127.781 382.292 128.456C380.491 129.132 386.343 128.456 377.565 129.132C368.787 129.807 366.31 130.707 366.31 130.707C366.31 130.707 365.635 130.257 364.509 131.157C363.384 132.057 361.808 133.408 360.233 132.733C358.658 132.057 357.757 132.282 356.407 132.508C355.056 132.733 354.157 131.383 352.581 132.508C351.005 133.632 349.205 134.083 348.529 133.632C347.852 133.176 346.726 131.376 346.726 131.376Z" fill="#B2B2B2"/>
<path d="M497.305 279.479C496.63 281.956 494.154 285.556 494.154 285.556L489.651 287.807C489.651 287.807 488.078 289.158 487.176 289.383C486.276 289.607 484.025 290.734 484.025 290.734C484.025 290.734 482 290.283 482.674 292.308C483.349 294.334 483.575 296.81 483.349 297.484C483.125 298.16 483.125 299.512 483.125 301.312C483.125 303.112 482.45 305.363 481.324 305.812C480.199 306.264 479.073 306.714 479.298 308.29C479.524 309.866 479.524 314.592 479.524 314.592L482.451 319.094C482.451 319.094 483.351 318.419 485.152 318.419C486.951 318.419 488.753 316.845 488.753 316.845C488.753 316.845 490.78 317.293 490.553 314.819C490.328 312.342 491.455 309.417 491.228 308.741C491.004 308.066 493.255 305.139 493.255 304.465C493.255 303.789 495.506 300.64 495.506 299.513C495.506 298.388 497.081 296.587 497.306 295.238C497.531 293.886 497.756 290.736 498.206 289.836C498.657 288.936 498.882 288.035 498.882 287.135C498.882 286.235 498.882 284.434 498.882 284.434L497.305 279.479Z" fill="#B2B2B2"/>
<path d="M673.544 309.866C672.869 310.765 672.419 320.445 671.969 321.57C671.519 322.695 670.618 328.548 671.07 329.897C671.519 331.249 672.194 336.2 671.745 337.776C671.294 339.351 671.971 344.303 670.844 344.078C669.72 343.852 669.271 344.304 669.271 344.978C669.271 345.654 670.844 347.003 670.844 347.003C670.844 347.003 673.547 347.004 674.672 346.778C675.797 346.553 678.048 345.427 679.849 345.427C681.65 345.427 682.775 344.076 684.349 344.076C685.925 344.076 689.303 342.952 690.203 343.401C691.103 343.85 692.453 340.7 694.029 341.376C695.605 342.051 698.982 339.8 700.557 339.8C702.131 339.8 702.807 337.323 704.608 337.775C706.408 338.225 709.786 336.875 711.362 337.548C712.935 338.225 715.412 335.298 716.537 337.548C717.663 339.8 721.04 340.7 721.04 341.825C721.04 342.95 720.812 345.427 720.812 345.427L723.514 345.201C723.514 345.201 727.789 342.5 728.466 342.5C729.141 342.5 730.717 340.25 730.717 341.376C730.717 342.5 729.366 344.978 728.917 346.102C728.467 347.228 729.365 348.579 729.365 348.579C729.365 348.579 731.618 349.704 730.717 351.729C729.816 353.755 730.941 353.306 730.717 354.88C730.491 356.456 730.717 355.78 731.615 356.68C732.517 357.581 734.094 359.159 735.443 358.932C736.795 358.706 737.244 357.357 738.37 358.032C739.495 358.707 741.744 358.257 742.419 359.158C743.097 360.057 738.145 362.308 746.698 358.483C755.251 354.655 756.148 353.755 757.274 352.404C758.403 351.054 759.753 349.704 760.651 348.803C761.552 347.903 760.879 348.128 763.578 346.102C766.279 344.077 766.278 344.977 768.756 341.15C771.232 337.325 773.031 335.974 773.483 335.298C773.933 334.622 774.833 334.398 775.058 331.695C775.283 328.995 777.083 326.519 777.083 325.619C777.083 324.72 777.759 323.37 777.534 321.793C777.309 320.217 778.434 317.968 777.083 315.717C775.732 313.465 777.758 312.567 775.732 311.664C773.706 310.764 772.356 311.215 771.906 309.639C771.455 308.063 769.654 308.288 768.979 304.012C768.304 299.736 765.604 299.284 765.604 299.284C765.604 299.284 762.903 298.159 763.578 297.71C764.255 297.259 764.479 294.107 764.255 293.207C764.029 292.307 764.028 290.281 763.354 288.932C762.679 287.58 762.228 285.781 761.553 284.204C760.878 282.629 759.753 282.178 759.302 280.378C758.851 278.578 758.177 277.901 757.953 277.452C757.726 277.002 757.274 274.752 756.826 277.226C756.376 279.702 755.474 284.428 755.474 284.428C755.474 284.428 753.673 288.256 752.998 289.381C752.323 290.505 751.648 293.432 750.523 293.206C749.397 292.981 748.721 294.333 747.823 294.106C746.922 293.88 745.571 294.332 744.896 293.657C744.221 292.981 742.42 291.181 741.519 290.955C740.619 290.731 739.944 288.931 739.268 288.931C738.591 288.931 737.467 287.354 737.693 286.454C737.917 285.554 738.142 283.529 738.368 282.628C738.592 281.728 739.944 279.701 739.944 279.701C739.944 279.701 739.944 278.351 738.818 278.351C737.693 278.351 737.468 278.351 734.992 278.125C732.517 277.899 731.843 277.675 730.94 277.675C730.042 277.675 731.842 277.225 729.365 277.9C726.89 278.577 725.763 280.377 724.188 281.953C722.615 283.528 723.964 283.077 722.615 283.528C721.262 283.979 721.488 282.402 720.587 284.879C719.686 287.355 721.038 288.029 720.36 288.48C719.685 288.931 714.961 286.905 714.961 286.905C714.961 286.905 716.086 286.679 715.185 285.554C714.286 284.428 713.384 282.854 712.035 283.529C710.682 284.204 709.557 284.655 708.659 285.78C707.758 286.905 707.757 287.805 707.082 288.705C706.407 289.605 704.607 289.605 704.381 290.506C704.156 291.407 704.156 293.657 703.482 293.882C702.807 294.108 702.582 292.984 701.907 292.758C701.232 292.533 701.457 290.732 701.008 291.858C700.558 292.983 700.107 292.757 699.432 294.558C698.755 296.359 698.532 297.935 697.857 298.16C697.182 298.386 697.856 298.61 695.829 299.736C693.805 300.861 693.355 300.861 690.43 302.212C687.505 303.563 688.18 303.563 686.154 303.787C684.129 304.013 683.676 304.688 682.326 304.913C680.974 305.138 680.076 305.362 678.724 306.713C677.374 308.064 676.249 308.513 675.349 308.739C674.449 308.965 673.544 309.866 673.544 309.866Z" fill="#B2B2B2"/>
<path d="M686.823 220.958C685.924 222.31 682.998 226.36 681.873 226.586C680.747 226.81 679.621 227.937 678.721 227.711C677.821 227.485 675.795 227.711 675.12 230.637C674.445 233.563 673.319 235.139 672.642 234.913C671.967 234.688 673.767 239.189 669.942 237.39C666.117 235.589 667.467 238.966 667.016 239.867C666.566 240.766 667.691 243.243 667.916 244.143C668.143 245.043 668.816 246.619 669.717 247.968C670.617 249.319 671.292 250.894 672.868 250.446C674.444 249.994 679.394 250.446 679.394 250.446C679.394 250.446 681.197 251.121 682.321 251.121C683.446 251.121 683.672 250.671 684.346 250.671C685.02 250.671 686.371 248.419 686.147 248.195C685.922 247.968 685.248 247.294 686.597 245.943C687.948 244.592 689.523 244.143 689.749 242.567C689.974 240.992 689.299 240.992 689.974 240.09C690.649 239.19 692.224 239.417 691.775 238.515C691.324 237.615 692.224 237.84 691.324 236.038C690.425 234.238 689.298 233.562 690.198 231.311C691.099 229.061 692.001 228.61 691.775 227.26C691.549 225.908 692.9 225.459 691.324 223.883C689.75 222.309 689.074 221.858 687.948 221.406C686.823 220.958 686.823 220.958 686.823 220.958Z" fill="#B2B2B2"/>
<path d="M730.94 243.467C731.842 243.242 734.992 240.991 735.218 245.043C735.443 249.094 735.666 247.968 737.019 250.219C738.369 252.47 739.267 253.147 740.843 252.021C742.418 250.894 744.219 250.894 744.669 248.87C745.12 246.844 745.12 246.844 746.47 246.844C747.823 246.844 748.271 246.619 748.949 247.521C749.623 248.419 750.071 247.519 752.999 249.095C755.925 250.671 758.4 250.219 760.203 251.796C762.004 253.371 762.904 253.148 765.379 254.047C767.855 254.947 766.729 253.597 768.98 256.073C771.232 258.548 770.333 259.223 771.456 260.349C772.581 261.474 773.483 259.448 773.032 262.149C772.581 264.85 769.431 262.149 774.158 265.974C778.884 269.802 779.56 270.478 781.134 271.602C782.711 272.728 783.836 274.079 782.487 274.079C781.134 274.079 776.859 274.079 776.41 273.403C775.959 272.728 773.934 272.277 772.582 270.702C771.233 269.128 768.307 268.001 767.633 266.651C766.956 265.299 766.056 264.85 764.931 264.85C763.806 264.85 762.681 266.2 761.104 267.776C759.528 269.351 760.206 266.877 758.178 267.551C756.151 268.227 753.903 267.325 752.776 266.425C751.65 265.525 751.877 264.175 750.077 264.85C748.274 265.525 747.151 265.075 747.826 263.725C748.501 262.373 748.05 260.573 748.05 260.573C748.05 260.573 748.727 258.322 747.152 257.873C745.576 257.424 745.576 255.848 744 255.396C742.423 254.947 739.949 253.821 739.949 253.821C739.949 253.821 739.724 253.821 739.048 253.596C738.373 253.37 738.373 253.37 736.572 252.921C734.772 252.47 733.42 252.919 732.521 251.795C731.619 250.67 732.07 249.094 732.07 249.094C732.07 249.094 735.671 249.544 732.07 246.843C728.469 244.143 728.469 244.143 728.469 244.143C728.469 244.143 728.917 243.917 728.693 243.467C728.466 243.015 730.94 243.467 730.94 243.467Z" fill="#B2B2B2"/>
<path d="M629.654 224.784C629.654 224.784 630.778 225.911 632.579 225.685C634.379 225.459 635.729 229.286 636.857 230.636C637.981 231.987 638.658 232.662 641.133 234.238C643.608 235.813 643.382 232.887 646.759 237.614C650.135 242.34 648.559 239.415 650.135 242.34C651.71 245.269 652.611 246.843 653.511 247.52C654.41 248.195 655.087 249.994 655.313 250.67C655.537 251.345 657.112 253.37 657.112 254.046C657.112 254.721 657.564 256.522 656.214 258.097C654.863 259.673 653.737 259.898 653.737 259.898C653.737 259.898 651.035 258.547 650.135 257.197C649.234 255.847 648.111 254.721 646.534 252.021C644.959 249.319 643.158 246.393 642.258 245.043C641.358 243.691 640.006 242.34 639.331 240.991C638.656 239.639 636.856 235.589 635.956 235.138C635.056 234.687 634.829 233.338 633.253 231.762C631.679 230.186 631.904 228.836 631.229 227.936C630.554 227.036 628.979 225.008 628.979 225.008L629.654 224.784Z" fill="#B2B2B2"/>
<path d="M191.868 400.349C190.292 399.449 186.916 397.873 185.791 396.973C184.666 396.073 181.29 391.119 181.29 391.119L178.813 386.392C178.813 386.392 175.888 382.791 176.563 381.441C177.238 380.09 178.589 379.19 178.589 378.515C178.589 377.84 179.939 376.038 178.813 375.364C177.688 374.688 177.688 374.464 177.012 372.438C176.337 370.413 176.337 368.61 175.437 368.161C174.536 367.712 173.861 364.785 172.961 364.56C172.061 364.334 171.16 362.759 171.16 362.759L169.809 344.527C169.809 344.527 169.358 336.2 168.909 334.398C168.458 332.598 169.584 328.772 168.458 325.395C167.333 322.019 168.684 317.968 168.008 316.617C167.333 315.266 168.458 311.441 167.783 307.84C167.108 304.239 170.484 299.737 167.783 298.387C165.082 297.035 167.108 295.01 164.857 295.01C162.607 295.01 161.031 293.884 159.005 292.31C156.979 290.734 153.152 287.807 152.027 286.681C150.902 285.557 147.3 282.63 146.175 281.73C145.05 280.83 143.924 277.003 143.024 275.877C142.124 274.753 141.674 271.377 140.323 269.351C138.972 267.326 137.172 263.95 136.721 263.274C136.271 262.599 131.319 256.747 131.319 256.747L131.769 253.146C131.769 253.146 135.145 251.12 134.695 250.445C134.245 249.769 134.921 249.093 133.344 247.744C131.768 246.392 131.993 243.916 133.344 242.792C134.695 241.665 136.72 238.064 136.72 238.064L140.096 232.438C140.096 232.438 142.798 229.51 142.798 227.485C142.798 225.46 146.624 224.11 144.373 222.309C142.122 220.507 143.248 218.932 142.572 217.581C141.896 216.231 142.347 215.331 144.373 213.98C146.399 212.629 150 207.678 150 207.678C150 207.678 152.701 207.002 153.376 207.002C154.051 207.002 155.177 199.798 157.203 204.525C159.229 209.252 159.904 206.776 159.229 210.152C158.553 213.528 160.129 212.854 161.029 211.954C161.929 211.052 160.578 212.629 162.379 208.576C164.179 204.525 163.505 203.175 164.63 204.301C165.755 205.427 166.205 205.652 168.231 206.327C170.256 207.002 170.932 206.776 171.606 208.127C172.281 209.478 172.057 207.677 175.883 208.353C179.709 209.029 185.111 207.002 184.436 209.252C183.761 211.503 182.41 209.027 185.561 211.503C188.712 213.98 189.163 214.429 190.963 214.88C192.763 215.33 194.339 215.105 197.041 217.806C199.742 220.506 200.417 220.732 201.092 222.081C201.767 223.433 202.892 222.532 204.018 223.882C205.143 225.234 206.719 225.234 208.294 225.234C209.869 225.234 208.294 223.882 210.77 225.684C213.247 227.484 215.047 227.708 216.172 231.31C217.297 234.914 219.548 234.687 217.747 238.289C215.947 241.891 212.346 243.466 213.921 243.241C215.496 243.015 218.423 241.664 219.323 241.89C220.223 242.114 220.673 241.215 222.024 241.89C223.375 242.565 223.6 240.99 223.375 242.565C223.149 244.141 223.149 242.565 223.149 244.141C223.149 245.716 222.699 242.565 225.4 243.241C228.101 243.916 226.525 241.889 229.676 244.816C232.828 247.743 232.828 246.843 233.952 248.418C235.078 249.992 236.203 247.519 236.879 248.193C237.555 248.867 239.58 248.417 241.606 248.868C243.632 249.317 242.281 247.518 245.433 249.543C248.583 251.568 251.735 250.893 252.41 252.694C253.085 254.494 254.887 253.819 255.786 254.945C256.685 256.071 257.136 254.494 258.037 256.071C258.937 257.645 261.639 257.195 261.188 258.77C260.737 260.347 261.862 259.446 261.412 261.696C260.963 263.949 259.386 267.55 258.037 268.449C256.686 269.35 256.687 270.475 255.786 271.6C254.886 272.727 255.111 270.475 253.985 273.626C252.86 276.778 253.085 277.228 252.185 280.153C251.285 283.078 251.96 280.153 251.285 283.079C250.61 286.005 251.06 287.806 250.385 291.183C249.71 294.558 249.935 294.559 249.485 297.035C249.035 299.511 250.61 295.911 248.584 301.086C246.559 306.264 246.334 306.037 245.659 308.289C244.983 310.541 245.884 308.739 243.408 310.09C240.932 311.442 242.283 310.99 239.356 311.891C236.431 312.791 232.829 313.693 231.704 313.917C230.579 314.141 226.077 315.492 227.428 318.192C228.779 320.894 228.779 321.344 227.428 324.721C226.077 328.096 224.052 329.223 224.052 330.797C224.052 332.372 223.151 333.947 222.927 335.073C222.701 336.199 224.952 333.947 222.252 337.324C219.551 340.7 219.326 339.8 218.425 341.826C217.525 343.851 218.425 342.275 217.525 343.851C216.625 345.426 214.374 346.101 214.374 346.101C214.374 346.101 214.598 347.227 213.698 346.777C212.797 346.328 213.023 347.002 209.646 346.101C206.27 345.201 205.82 342.952 205.37 344.526C204.92 346.101 205.595 347.003 207.621 348.578C209.646 350.154 213.023 350.603 212.122 352.18C211.222 353.756 211.222 353.756 210.547 354.656C209.871 355.557 211.447 354.881 209.871 355.557C208.296 356.232 207.395 359.159 206.72 359.159C206.045 359.159 205.594 360.284 204.694 359.834C203.794 359.383 201.544 357.808 201.093 358.708C200.643 359.607 199.742 357.582 199.967 360.733C200.193 363.884 200.643 365.685 199.517 366.361C198.392 367.036 195.69 366.361 195.69 366.361L195.24 365.235L193.665 365.685C193.665 365.685 192.99 368.386 194.115 368.836C195.24 369.286 195.015 369.735 196.14 371.086C197.266 372.437 196.591 374.913 196.591 374.913C196.591 374.913 196.591 375.589 195.466 376.714C194.341 377.839 193.89 378.74 193.665 379.415C193.439 380.09 192.089 383.017 194.115 382.791C196.14 382.565 197.717 381.44 197.717 385.042C197.717 388.643 198.617 387.744 197.492 390.219C196.366 392.695 195.466 392.92 195.241 395.17C195.017 397.421 195.467 397.646 195.917 398.997C196.367 400.348 197.493 399.672 196.367 400.348C195.244 401.023 191.868 400.349 191.868 400.349Z" fill="#B2B2B2"/>
<path d="M133.796 217.132L132.221 214.882C132.221 214.882 131.546 213.53 130.42 213.306C129.294 213.082 126.818 210.155 126.818 210.155C126.818 210.155 125.693 209.255 125.693 207.68C125.693 206.104 124.792 203.629 125.467 200.928C126.143 198.228 126.368 194.851 126.143 193.95C125.917 193.05 127.268 192.825 125.693 191.924C124.117 191.024 120.966 190.799 118.94 190.799C116.915 190.799 114.438 191.475 113.988 191.699C113.538 191.924 116.464 184.947 116.914 183.822C117.364 182.697 119.39 177.744 119.39 177.07C119.39 176.394 120.065 176.169 118.715 175.27C117.365 174.369 115.114 173.919 113.763 174.594C112.413 175.27 112.638 173.694 111.513 176.394C110.388 179.096 109.262 182.022 107.911 182.472C106.561 182.923 103.86 184.273 103.86 184.273C103.86 184.273 100.484 184.048 99.3581 183.823C98.2331 183.598 93.5061 181.122 92.6061 179.547C91.7061 177.971 91.2561 174.594 91.2561 173.02C91.2561 171.444 93.7311 166.718 93.5061 165.592C93.2811 164.467 95.9831 159.965 95.7571 159.289C95.5311 158.614 96.2071 156.363 96.8821 155.463C97.5571 154.563 100.934 153.437 101.834 152.537C102.734 151.636 104.31 150.512 105.885 150.061C107.46 149.61 108.812 149.161 109.937 149.161C111.062 149.161 113.988 146.685 114.438 149.161C114.889 151.636 116.915 150.736 118.04 150.961C119.165 151.187 119.391 152.312 121.191 149.386C122.992 146.459 124.792 145.559 124.792 146.234C124.792 146.91 127.718 146.01 128.168 146.685C128.618 147.36 129.519 146.234 131.094 147.585C132.67 148.936 134.92 149.161 134.695 149.835C134.47 150.51 135.595 150.51 135.595 151.186C135.595 151.861 136.496 149.61 136.496 153.661C136.496 157.713 137.621 160.189 137.621 160.189C137.621 160.189 139.196 163.566 139.871 162.89C140.546 162.215 141.896 160.415 141.896 160.415C141.896 160.415 144.147 159.064 142.572 154.337C140.996 149.611 142.122 148.26 141.672 146.684C141.221 145.108 141.221 144.207 143.922 142.182C146.623 140.157 153.15 135.655 154.726 134.755C156.301 133.855 159.902 131.379 159.902 131.379C159.902 131.379 161.252 130.704 161.478 128.903C161.703 127.103 165.979 123.951 166.205 123.051C166.431 122.151 169.357 119.901 169.357 119.901C169.357 119.901 172.507 118.099 172.282 116.975C172.057 115.85 176.334 113.825 177.009 113.825C177.684 113.825 181.286 114.949 181.286 112.923C181.286 110.898 181.286 110.447 183.537 108.647C185.787 106.847 188.713 104.145 189.839 104.145C190.964 104.145 194.791 102.121 196.366 101.67C197.942 101.219 202.894 98.9676 198.392 101.67C193.89 104.37 196.816 102.795 195.916 105.046C195.017 107.296 194.34 110.223 198.617 106.846C202.894 103.47 202.668 102.794 204.244 102.57C205.82 102.345 204.694 103.245 208.07 102.119C211.447 100.994 211.672 100.544 211.672 100.544C211.672 100.544 213.248 99.1926 212.347 98.5186C211.447 97.8426 213.248 96.9426 209.871 98.2926C206.495 99.6436 206.72 99.8686 204.469 99.1926C202.219 98.5176 198.842 98.7416 201.318 96.4906C203.794 94.2406 206.945 93.5646 204.919 92.6646C202.894 91.7646 197.717 92.8906 197.042 93.1146C196.366 93.3396 194.791 92.8896 193.44 93.1146C192.09 93.3396 192.54 91.3156 193.44 90.8646C194.341 90.4136 197.267 89.0626 200.868 88.1626C204.469 87.2626 213.248 87.0376 215.273 87.0376C217.298 87.0376 219.999 87.4886 221.575 86.3626C223.15 85.2376 226.302 83.4376 226.752 82.5356C227.203 81.6356 229.003 80.2856 229.003 80.2856C229.003 80.2856 231.028 78.2596 229.903 77.3596C228.778 76.4596 227.652 74.4336 226.752 74.8836C225.852 75.3336 226.528 78.0356 224.727 75.1086C222.926 72.1836 223.151 71.7326 222.251 71.0576C221.351 70.3826 220.45 70.8316 221.126 67.6816C221.801 64.5306 221.576 63.1796 221.576 63.1796C221.576 63.1796 222.251 60.4796 221.576 60.2546C220.9 60.0286 220.451 59.3546 219.326 60.0286C218.2 60.7036 211.898 63.8556 210.548 64.5306C209.197 65.2056 207.396 61.8296 208.071 60.2546C208.747 58.6776 208.296 59.5786 207.396 57.3286C206.496 55.0776 202.895 54.6266 201.544 54.6266C200.193 54.6266 197.043 52.6006 196.142 53.9516C195.242 55.3016 190.516 59.5776 189.614 60.0286C188.714 60.4796 187.364 56.2026 186.689 63.1796C186.013 70.1586 189.165 72.1836 185.564 72.6336C181.963 73.0836 178.811 75.1086 178.811 75.1086C178.811 75.1086 175.886 75.3346 175.886 77.1346C175.886 78.9366 174.761 83.2116 173.409 83.6616C172.059 84.1126 168.682 83.4376 167.557 82.0866C166.432 80.7356 167.782 75.7846 167.782 75.7846L169.808 73.7586C169.808 73.7586 155.403 71.5086 155.627 70.6076C155.853 69.7076 151.351 68.1326 150.901 66.7816C150.451 65.4306 150.225 62.5046 150.676 61.3796C151.126 60.2546 157.203 54.8526 160.354 53.7276C163.505 52.6016 168.907 50.1266 170.483 49.6756C172.059 49.2256 174.759 49.4506 175.66 48.3256C176.56 47.1996 176.785 45.1746 176.785 45.1746C176.785 45.1746 176.335 42.0226 177.235 42.4726C178.135 42.9236 179.711 43.5986 179.936 44.2736C180.162 44.9486 180.162 46.5246 181.737 44.7226C183.313 42.9226 185.339 42.2466 187.139 41.3476C188.94 40.4466 191.64 40.6726 193.217 39.7726C194.792 38.8726 197.493 37.9716 197.718 35.7206C197.943 33.4706 197.043 34.1456 195.917 33.9196C194.792 33.6956 196.367 34.1456 192.541 35.9456C188.714 37.7456 189.84 36.3956 187.139 37.7456C184.438 39.0966 184.212 39.3216 183.988 38.1966C183.762 37.0706 184.438 35.2706 184.438 35.2706C184.438 35.2706 184.664 35.0446 183.088 34.5956C181.512 34.1456 181.512 34.8206 181.287 32.7956C181.062 30.7696 182.412 27.8436 180.162 28.7436C177.911 29.6436 175.886 28.0686 174.31 32.5696C172.734 37.0706 167.332 41.7986 165.981 40.6726C164.631 39.5476 164.406 39.3216 163.28 39.3216C162.154 39.3216 160.579 37.9716 158.553 37.7466C156.527 37.5216 150.449 37.5216 148.875 37.7466C147.299 37.9726 145.499 36.8466 144.147 38.1976C142.797 39.5476 140.772 41.3486 140.772 42.0246C140.772 42.6996 138.746 39.5476 138.071 39.7736C137.396 39.9986 135.594 38.8736 133.57 38.8736C131.544 38.8736 130.193 37.7476 129.519 37.7476C128.844 37.7476 130.193 35.9466 129.519 35.7216C128.844 35.4976 114.212 35.0466 114.212 35.0466C114.212 35.0466 109.486 33.2466 107.686 33.4716C105.885 33.6966 100.934 33.9206 97.1061 34.5966C93.2791 35.2716 87.6521 37.5226 85.8521 37.7476C84.0511 37.9736 80.0001 37.9736 79.3251 36.8476C78.6491 35.7226 79.5501 35.9476 78.6491 35.7226C77.7491 35.4986 78.4251 35.0476 76.3991 33.4726C74.3731 31.8966 77.3001 30.5466 73.2481 30.5466C69.1971 30.5466 66.7211 30.3206 63.1201 30.5466C59.5181 30.7716 52.0911 32.5716 51.1911 32.3466C50.2911 32.1216 43.0881 33.4726 41.9621 32.7976C40.8371 32.1216 35.2091 35.2726 34.0851 35.0476C32.9601 34.8226 28.6831 35.2736 27.5581 35.9486C26.4321 36.6246 21.0301 37.9736 22.8311 39.0996C24.6311 40.2246 24.4061 41.3496 24.6311 42.0256C24.8571 42.7006 22.8311 44.2756 22.8311 44.2756C22.8311 44.2756 22.3801 44.2756 19.9051 43.3756C17.4291 42.4746 14.7281 42.0256 13.6021 42.7006C12.4771 43.3756 10.4511 44.7276 10.9011 45.6276C11.3521 46.5276 14.5021 48.5536 14.9531 47.8776C15.4031 47.2026 16.5291 45.8526 17.8791 46.0776C19.2301 46.3036 21.2561 45.1776 19.4551 47.4286C17.6541 49.6786 16.0781 50.8046 14.9531 51.0306C13.8281 51.2546 11.1271 51.4796 8.65118 51.7056C6.17418 51.9316 6.39918 50.8056 4.14918 53.0566C1.89918 55.3066 0.998186 53.9566 0.548186 56.4326C0.0981852 58.9076 -0.351814 58.9076 0.548186 59.5836C1.44818 60.2586 -1.25282 60.4836 0.773185 61.1586C2.79818 61.8346 5.27418 62.5096 5.04918 63.1836C4.82318 63.8596 7.30018 62.2846 5.94918 64.0836C4.59818 65.8856 3.69918 67.4596 6.39918 65.6596C9.10018 63.8596 10.6751 65.2086 12.9261 64.0836C15.1771 62.9586 17.4281 62.7336 18.7781 61.8336C20.1291 60.9326 20.8041 59.5836 22.8301 58.9066C24.8561 58.2316 23.5051 59.1326 23.7301 60.2576C23.9551 61.3826 23.7301 61.6076 25.0811 60.7066C26.4311 59.8066 26.4311 60.4826 28.2321 59.3566C30.0321 58.2316 32.0581 57.1056 33.4091 57.7806C34.7591 58.4566 35.2091 58.4566 36.1101 58.4566C37.0101 58.4566 34.9851 58.2306 37.0101 58.4566C39.0361 58.6806 36.1101 57.7806 42.8621 59.3566C49.6151 60.9316 51.4161 59.8066 51.8651 62.2826C52.3161 64.7586 53.2161 62.0566 54.3411 63.6326C55.4661 65.2076 56.1421 63.8586 56.8171 66.5586C57.4921 69.2606 56.8171 76.6876 56.3671 77.5876C55.9171 78.4876 55.6921 78.4876 55.9171 80.5136C56.1421 82.5386 58.8431 92.2186 57.9431 92.8926C57.0431 93.5666 55.0171 93.7926 55.0171 93.7926L53.8921 97.8436C53.8921 97.8436 52.0921 101.22 50.5161 103.021C48.9401 104.821 46.9151 107.073 45.7891 108.647C44.6641 110.223 43.7631 112.925 42.1881 114.5C40.6131 116.075 39.2621 115.4 39.7121 118.776C40.1621 122.152 39.7121 125.753 40.1621 128.23C40.6131 130.706 41.7381 134.082 42.6381 135.433C43.5381 136.783 44.2141 136.783 45.7891 137.908C47.3651 139.033 49.3911 140.385 49.1651 141.51C48.9401 142.635 49.3901 149.614 49.3901 149.614C49.3901 149.614 50.7411 151.864 50.9651 154.34C51.1911 156.817 52.7661 159.292 52.7661 159.292L54.1171 162.219C54.1171 162.219 54.7921 162.445 55.6931 164.244C56.5931 166.045 56.5931 166.045 56.8181 166.944C57.0441 167.846 57.0441 167.62 57.0441 167.846C57.0441 168.07 56.8181 164.019 56.3681 162.893C55.9181 161.768 55.9181 160.418 55.4681 159.067C55.0181 157.716 55.6931 156.14 54.3431 154.115C52.9931 152.09 52.9931 151.864 52.3181 149.838C51.6431 147.813 50.7421 145.562 51.6431 145.111C52.5431 144.662 53.2181 141.736 55.0191 145.111C56.8191 148.487 57.0451 147.588 57.2701 150.289C57.4941 152.99 58.1701 153.891 58.8451 155.015C59.5201 156.14 61.0951 159.968 61.9961 161.542C62.8961 163.118 61.9961 160.642 64.0211 163.793C66.0471 166.944 66.2731 167.619 67.3981 170.095C68.5231 172.571 69.1991 172.571 69.8741 174.371C70.5491 176.173 70.0991 175.722 69.6481 177.747C69.1981 179.772 70.0981 182.024 70.0981 182.024C70.0981 182.024 73.2491 183.149 73.4741 183.824C73.6991 184.499 76.8501 185.624 77.3011 186.525C77.7511 187.426 80.6771 188.55 80.6771 188.55C80.6771 188.55 83.1531 190.126 84.0521 190.576C84.9531 191.026 87.6551 191.477 87.6551 191.477C87.6551 191.477 89.4551 191.928 90.1301 192.152C90.8051 192.377 92.8311 192.377 92.8311 192.377C92.8311 192.377 94.6321 191.027 95.3071 191.477C95.9821 191.926 97.5581 190.576 98.2331 191.701C98.9081 192.827 100.259 192.827 100.934 193.728C101.609 194.628 102.284 194.628 103.41 195.753C104.536 196.878 105.661 196.653 106.786 197.553C107.911 198.453 108.811 198.453 110.162 198.453C111.512 198.453 111.512 198.453 112.413 198.679C113.312 198.904 113.763 198.003 114.663 199.13C115.563 200.255 116.238 200.93 116.913 202.055C117.588 203.18 119.164 203.18 119.389 204.981C119.614 206.781 120.064 206.558 120.064 208.132C120.064 209.708 120.964 210.383 121.64 210.834C122.314 211.283 124.79 213.533 124.79 213.533L128.166 214.209L130.867 216.235L133.796 217.132Z" fill="#B2B2B2"/>
<path d="M205.936 8.02979L219.441 6.34179C219.441 6.34179 224.167 6.34179 226.531 4.65379C228.894 2.96579 226.531 2.96579 233.621 1.61579C240.711 0.264787 238.686 -0.410214 242.4 0.264787C246.113 0.940787 247.126 0.940787 251.178 1.61579C255.229 2.29079 256.242 1.27879 259.955 2.29079C263.669 3.30379 265.357 2.96579 268.396 2.96579C271.434 2.96579 273.123 2.96579 277.849 2.96579C282.576 2.96579 286.965 0.264786 288.653 1.95279C290.341 3.64079 291.354 2.96579 297.094 3.64079C302.833 4.31579 305.197 2.96479 307.56 3.64079C309.924 4.31579 313.976 3.30379 318.702 3.64079C323.428 3.97779 325.792 3.30379 327.48 3.30379C329.168 3.30379 330.855 0.939787 333.219 2.96579C335.583 4.99179 338.621 2.29079 338.958 4.99179C339.296 7.69279 343.685 5.66679 339.296 7.69279C334.907 9.71879 335.582 9.38079 332.543 12.0818C329.505 14.7828 334.569 17.1458 328.154 19.5098C321.739 21.8728 320.726 18.1588 319.038 22.2108C317.35 26.2618 319.038 27.2748 318.701 29.3008C318.363 31.3258 317.688 31.6638 315.662 33.3518C313.637 35.0398 313.637 33.3518 308.91 34.3648C304.183 35.3778 300.807 36.3908 298.782 36.3908C296.756 36.3908 292.367 38.0788 291.016 38.7538C289.665 39.4298 293.38 40.4418 286.289 42.4678C279.199 44.4938 277.51 44.1568 275.485 46.8568C273.459 49.5588 274.134 49.8968 272.784 51.5848C271.433 53.2728 267.382 60.0258 265.356 58.3378C263.331 56.6498 262.317 56.9868 260.629 55.2988C258.941 53.6108 257.928 51.2478 256.915 49.8968C255.902 48.5458 255.564 45.1698 255.227 43.1438C254.89 41.1178 251.85 36.3918 255.227 37.0668C258.603 37.7418 260.629 37.4048 261.642 36.7298C262.655 36.0538 263.668 33.6908 263.668 33.6908C263.668 33.6908 263.331 29.9768 262.317 27.9508C261.304 25.9248 261.98 24.2368 260.292 22.2118C258.604 20.1858 258.604 20.5238 256.24 18.4978C253.877 16.4718 254.552 15.4588 250.838 15.1218C247.124 14.7848 246.111 13.7708 244.76 14.1088C243.41 14.4458 239.021 11.7448 243.747 11.4078C248.474 11.0698 252.863 11.7448 252.863 11.7448C252.863 11.7448 258.94 9.04379 256.915 8.70679C254.89 8.36879 259.953 5.32979 255.227 6.34279C250.5 7.35579 245.099 8.70679 243.748 9.04379C242.398 9.38079 239.021 9.71879 235.645 10.7318C232.27 11.7448 228.217 11.4078 226.192 13.7708C224.166 16.1338 226.192 16.4718 224.166 16.1338C222.141 15.7968 225.854 13.7708 221.128 16.1338C216.401 18.4978 217.752 18.1598 215.389 17.4848C213.025 16.8098 211.337 15.7968 211.337 15.7968C211.337 15.7968 214.377 15.4588 209.987 15.1218C205.598 14.7848 205.598 14.7848 203.91 12.7578C202.222 10.7318 203.235 10.7318 204.247 10.0568C205.261 9.38079 205.936 8.02979 205.936 8.02979Z" fill="#B2B2B2"/>
<path d="M198.508 23.2227C196.82 24.9107 192.768 27.2747 193.782 28.2877C194.795 29.3007 195.47 33.0147 197.496 32.0017C199.521 30.9887 197.158 27.6127 204.923 30.3137C212.689 33.0147 212.013 29.9767 213.701 34.0277C215.389 38.0787 216.739 41.1167 215.726 42.1307C214.714 43.1437 214.376 44.1567 210.999 45.1697C207.623 46.1827 206.272 47.5337 208.636 49.2207C210.999 50.9087 215.389 52.5967 217.414 53.6107C219.44 54.6227 225.517 54.9617 222.478 51.5857C219.439 48.2097 223.153 47.1957 223.153 47.1957C223.153 47.1957 228.893 51.5857 226.868 46.5207C224.842 41.4567 223.491 41.4567 224.842 41.4567C226.193 41.4567 228.893 43.1447 228.893 43.1447L230.244 40.4437L228.893 36.0547L224.504 31.6657C224.504 31.6657 228.217 28.2897 223.153 27.6147C218.089 26.9397 218.426 26.9397 215.725 25.2507C213.024 23.5627 212.687 22.8877 207.622 23.9007C202.558 24.9137 200.87 25.5887 200.87 25.5887L198.508 23.2227Z" fill="#B2B2B2"/>
<path d="M123.218 27.2745C125.244 25.2485 130.646 20.5225 132.672 21.8725C134.697 23.2225 137.735 20.8595 140.099 22.8855C142.462 24.9115 145.163 27.2745 147.189 27.9495C149.215 28.6245 151.578 26.2615 153.604 27.2745C155.629 28.2875 162.719 22.2105 161.369 26.9375C160.018 31.6645 163.057 33.0145 159.343 33.3525C155.629 33.6905 151.578 36.3915 149.889 35.3785C148.201 34.3655 146.85 33.3525 144.149 34.7035C141.448 36.0535 142.799 36.0535 139.76 35.3785C136.722 34.7035 136.047 36.0535 135.372 35.0405C134.696 34.0285 132.671 34.3655 133.008 31.3265C133.345 28.2885 134.358 28.6255 132.332 28.6255C130.307 28.6255 128.619 28.9635 127.268 27.9505C125.918 26.9375 123.218 27.2745 123.218 27.2745Z" fill="#B2B2B2"/>
</svg>
