<svg width="2436" height="960" viewBox="0 0 2436 960" fill="none" xmlns="http://www.w3.org/2000/svg">
<path d="M0 279.882L35 200.382H56.5C59.8333 202.216 68.2 207.782 75 215.382C81.8 222.982 90.1667 234.882 93.5 239.882C99.6667 244.549 117.3 246.182 138.5 215.382C205 146.882 208 148.882 216.5 140.382C225 131.882 218 132.382 243 120.382C331.5 140.382 339.174 119.556 347 127.382C352 132.382 357.5 114.382 366.5 98.8824C367.5 98.8824 368.4 95.3824 378 95.3824C387.6 95.3824 401 88.7158 406.5 85.3824H419.698C419.731 84.1407 422.514 80.7962 431.5 73.3824C451.5 56.8824 458 60.3825 473 36.8825C488 13.3825 476.5 -8.61755 498 3.38245C519.5 15.3824 515 16.8825 526.5 36.8825C564.5 73.3824 564.5 70.3824 584.5 95.3824C604.5 120.382 611 132.382 624.5 120.382C704.5 130.382 727.798 135.367 722 126.5C718 120.382 740.5 107 743 108.382L764.5 130.382C769.5 131.049 780.5 129.982 784.5 120.382C789.5 108.382 813.294 113.355 837.5 86.8824C861.706 60.41 920.886 65.6354 920 75.8824C919.114 86.1295 970.66 85.5 971.5 91.5C975 116.5 998 155.382 1008 155.382H1034.5C1038 155.382 1043.3 148.182 1044.5 165.382C1111 200.382 1111 208.882 1131 200.382C1184.5 215.382 1199 230.382 1212.5 215.382C1238.1 203.382 1261.17 210.382 1269.5 215.382C1275 223.549 1287 239.882 1291 239.882C1300.5 239.882 1291 250.5 1326 248.382C1340.82 247.486 1338.5 223 1350 225.382L1364 239.882C1364 239.882 1369.04 244.447 1373 246C1387.3 251.613 1400.5 246 1400.5 246C1411.17 239.833 1423.9 256.182 1429.5 253.382C1436.5 249.882 1448.26 261.42 1456 257.882C1464.5 254 1511 267.5 1515.5 268.5C1526.7 276.5 1553 260.5 1567 258L1588 255.5H1598.5L1608.5 253L1625 246L1633 239.882H1637.5C1657 247.5 1688 259.382 1704 264.882L1737.5 257.882H1742C1743.67 260.216 1748.3 264.882 1753.5 264.882C1760 264.882 1761 271.882 1767.5 264.882C1772.7 259.282 1777.67 254.882 1779.5 253.382C1782.33 255.049 1788.8 257.382 1792 253.382C1796 248.382 1800 239.882 1808.5 239.882C1828.5 239.882 1842.83 230.216 1847.5 225.382H1855.5C1884 215.382 1887 209.882 1892 208.882C1899.2 200.882 1903.33 192.882 1904.5 189.882H1920C1948 181.882 1958.67 168.549 1960.5 162.882H1969.5L1974.5 154.382L1994.5 143.882C1994.5 146.549 1995.8 151.082 2001 147.882C2007.5 143.882 2002 139.382 2015.5 136.882C2026.3 134.882 2031 136.049 2032 136.882C2034 138.882 2038.4 142.282 2040 139.882C2042 136.882 2040 134.882 2049 133.882C2072 143.882 2077 141.382 2075 147.882C2073 154.382 2068.5 157.882 2075 157.882C2080.2 157.882 2085.17 161.216 2087 162.882L2094 166.382C2094.17 164.716 2095.1 162.382 2097.5 166.382C2104.5 171.382 2111 165.882 2109.5 171.382C2113.9 178.982 2120.67 175.216 2123.5 172.382C2126.17 170.382 2131.8 166.382 2133 166.382C2137.8 165.182 2141.67 163.549 2143 162.882C2142 161.549 2140.6 159.082 2143 159.882C2146 160.882 2153.5 156.382 2155 155.382C2156.5 154.382 2160 152.882 2161.5 152.882C2163 152.882 2164.5 151.882 2166.5 152.882C2168.5 153.882 2167.5 154.882 2172.5 153.882C2177.5 152.882 2179 149.882 2180.5 151.382C2182 152.882 2180.5 155.382 2183.5 155.382C2186.5 155.382 2185.5 155.382 2187.5 156.882C2189.5 158.382 2189 158.382 2191.5 159.882C2193.5 161.082 2195.67 160.382 2196.5 159.882H2198C2201 159.882 2202 161.382 2203.5 159.882C2205 158.382 2205.5 159.882 2207 156.882C2208.5 153.882 2211 149.382 2213.5 148.882C2216 148.382 2215 153.382 2219 147.382C2222.2 142.582 2222 142.049 2221.5 142.382C2222 141.716 2223.3 140.182 2224.5 139.382C2235.5 127.382 2233.5 117.382 2236.5 125.882C2247 119.382 2246.5 119.382 2248.5 115.882C2254.5 112.882 2254 114.382 2255.5 111.382C2256.7 108.982 2258 107.049 2258.5 106.382C2258.5 105.382 2258.8 103.982 2260 106.382C2261.5 109.382 2262.5 111.382 2264.5 106.382C2269 100.382 2270.5 100.882 2271.5 99.3824C2272.5 97.8824 2272.5 99.8824 2274.5 95.8824C2276.5 91.8824 2274.5 87.3824 2278 89.8824C2281.5 92.3824 2281.5 88.3824 2285 84.8824C2293.8 82.4824 2297.33 81.5491 2298 81.3824H2301C2300 82.5491 2298.6 84.8824 2301 84.8824C2304 84.8824 2306 84.8824 2306 87.3824C2306 89.3824 2308 91.8824 2309 92.8824V93.8824C2311.67 94.3824 2317.1 95.7824 2317.5 97.3824C2322.5 99.3824 2324.5 98.3824 2323.5 100.882C2322.5 103.382 2320 104.382 2322 104.882C2324 105.382 2325 104.882 2325.5 105.382C2326 105.882 2325 105.882 2326.5 106.882C2328 107.882 2326.5 108.382 2329 108.382C2333 109.882 2331 109.882 2333 110.882C2335 111.882 2335 108.882 2336 112.382C2337 115.882 2338 115.382 2339.5 115.882C2342.5 116.882 2341.5 116.882 2344 117.382C2346.5 117.882 2348 117.382 2347 118.882C2346 120.382 2346.5 121.382 2349 121.382C2351.5 121.382 2352.5 120.382 2353.5 121.382C2364.5 123.382 2361.5 121.882 2362 123.382C2362.5 124.882 2362.5 124.882 2363.5 124.882C2365 125.882 2364 125.382 2366.5 125.882C2369 126.382 2371.5 125.382 2371.5 127.382C2371.5 129.382 2374 129.382 2375 128.882C2376 128.382 2380.5 128.882 2381.5 128.882C2382.5 128.882 2380 126.382 2384 128.882C2384.5 129.194 2384.82 129.444 2385.01 129.641C2385.44 129.544 2386.08 129.453 2387 129.382C2393.5 128.882 2394.5 128.382 2395 128.882C2395.5 129.382 2395.5 131.382 2398 129.382C2400.5 127.382 2400.5 127.882 2401.5 127.382C2404.5 126.882 2405.5 126.382 2405.5 125.882C2405.5 125.382 2404 125.882 2405.5 124.882C2407 123.882 2405.5 124.382 2407.5 123.382C2409.5 122.382 2410 123.882 2411 121.382C2412 118.882 2411 119.382 2412.5 118.382C2414 117.382 2414 118.882 2415.5 116.382C2417 113.882 2417.5 113.882 2419 113.382C2420.5 112.882 2420.5 109.382 2421.5 112.882C2422.5 116.382 2422 109.382 2423 109.882C2427 108.382 2427.5 108.882 2428 107.882C2429.5 105.882 2430 105.882 2430.5 104.882C2434 101.882 2432.5 104.382 2433.5 102.882C2434.5 101.382 2434.5 103.382 2434.5 103.882C2434.5 104.382 2433.5 105.382 2434 105.882C2434.4 106.282 2436.67 666.5 2434.5 951L0 959.882V279.882Z" fill="#5F9779"/>
</svg>
