<?xml version="1.0" encoding="UTF-8"?>
<!DOCTYPE svg PUBLIC "-//W3C//DTD SVG 1.1//EN" "http://www.w3.org/Graphics/SVG/1.1/DTD/svg11.dtd">
<svg xmlns="http://www.w3.org/2000/svg" version="1.1" width="1077px" height="100px" style="shape-rendering:geometricPrecision; text-rendering:geometricPrecision; image-rendering:optimizeQuality; fill-rule:evenodd; clip-rule:evenodd" xmlns:xlink="http://www.w3.org/1999/xlink">
<g><path style="opacity:0.148" fill="#f5f2db" d="M 163.5,32.5 C 164.167,45.1667 164.833,57.8333 165.5,70.5C 167.5,71.1667 169.5,71.8333 171.5,72.5C 168.721,72.7214 166.054,72.388 163.5,71.5C 163.5,58.5 163.5,45.5 163.5,32.5 Z"/></g>
<g><path style="opacity:1" fill="#e0d29e" d="M 163.5,32.5 C 163.5,45.5 163.5,58.5 163.5,71.5C 159.154,71.3343 154.821,71.501 150.5,72C 149.584,72.2784 148.918,72.7784 148.5,73.5C 146.565,74.1495 144.565,74.4828 142.5,74.5C 135.686,75.1293 129.353,77.1293 123.5,80.5C 122.575,81.3569 121.908,82.3569 121.5,83.5C 108.025,92.6402 97.3579,104.307 89.5,118.5C 85.9179,124.25 83.9179,130.583 83.5,137.5C 83.5,137.833 83.5,138.167 83.5,138.5C 82.0133,141.546 81.0133,144.879 80.5,148.5C 78.3501,146.851 76.3501,145.018 74.5,143C 76.7796,132.714 79.4463,122.548 82.5,112.5C 87.9079,100.426 95.9079,90.4255 106.5,82.5C 114.961,78.1042 123.628,73.9375 132.5,70C 133.252,69.3292 133.586,68.4959 133.5,67.5C 136.152,67.5905 138.485,66.9238 140.5,65.5C 143.057,64.5148 145.724,63.5148 148.5,62.5C 149.608,59.9409 150.941,57.6076 152.5,55.5C 156.049,50.7445 158.883,45.4112 161,39.5C 161.333,39.8333 161.667,40.1667 162,40.5C 162.497,38.1902 162.663,35.8568 162.5,33.5C 162.5,32.8333 162.833,32.5 163.5,32.5 Z"/></g>
<g><path style="opacity:1" fill="#e7d9ad" d="M 162.5,33.5 C 162.663,35.8568 162.497,38.1902 162,40.5C 161.667,40.1667 161.333,39.8333 161,39.5C 158.883,45.4112 156.049,50.7445 152.5,55.5C 155.323,47.8599 158.656,40.5266 162.5,33.5 Z"/></g>
<g><path style="opacity:0.835" fill="#eee4c1" d="M 177.5,63.5 C 174.892,63.4003 172.558,64.0669 170.5,65.5C 172.265,62.5512 174.598,61.8846 177.5,63.5 Z"/></g>
<g><path style="opacity:1" fill="#e1d39f" d="M 177.5,63.5 C 183.245,63.6028 188.578,64.9361 193.5,67.5C 194.276,69.974 195.776,70.6407 198,69.5C 199.008,71.259 200.508,72.4257 202.5,73C 205.839,74.2963 209.173,75.463 212.5,76.5C 226.987,85.3201 237.987,97.3201 245.5,112.5C 245.547,115.568 246.047,118.568 247,121.5C 248.257,126.281 250.091,130.781 252.5,135C 251.663,136.011 251.33,137.178 251.5,138.5C 252.5,138.5 253.5,138.5 254.5,138.5C 254.577,139.75 255.244,140.583 256.5,141C 261.33,143.42 266.33,145.254 271.5,146.5C 276.599,148.369 281.599,150.536 286.5,153C 273.171,153.5 259.837,153.667 246.5,153.5C 246.638,148.586 245.972,143.919 244.5,139.5C 243.549,138.081 243.216,136.415 243.5,134.5C 242.749,126.316 240.249,118.649 236,111.5C 235.329,110.748 234.496,110.414 233.5,110.5C 226.167,99.8333 217.167,90.8333 206.5,83.5C 206.586,82.5041 206.252,81.6708 205.5,81C 201.859,79.9005 198.525,78.2338 195.5,76C 192.173,75.3897 188.839,74.8897 185.5,74.5C 180.833,73.8333 176.167,73.1667 171.5,72.5C 169.5,71.8333 167.5,71.1667 165.5,70.5C 166.833,68.5 168.5,66.8333 170.5,65.5C 172.558,64.0669 174.892,63.4003 177.5,63.5 Z"/></g>
<g><path style="opacity:0.804" fill="#ede2be" d="M 140.5,65.5 C 138.485,66.9238 136.152,67.5905 133.5,67.5C 135.515,66.0762 137.848,65.4095 140.5,65.5 Z"/></g>
<g><path style="opacity:0.965" fill="#e6d8ab" d="M 133.5,67.5 C 133.586,68.4959 133.252,69.3292 132.5,70C 123.628,73.9375 114.961,78.1042 106.5,82.5C 114.395,75.7144 123.395,70.7144 133.5,67.5 Z"/></g>
<g><path style="opacity:0.966" fill="#e8dbb1" d="M 193.5,67.5 C 200.529,69.1824 206.862,72.1824 212.5,76.5C 209.173,75.463 205.839,74.2963 202.5,73C 200.508,72.4257 199.008,71.259 198,69.5C 195.776,70.6407 194.276,69.974 193.5,67.5 Z"/></g>
<g><path style="opacity:0.31" fill="#f0eaca" d="M 163.5,71.5 C 158.668,72.3996 153.668,73.0662 148.5,73.5C 148.918,72.7784 149.584,72.2784 150.5,72C 154.821,71.501 159.154,71.3343 163.5,71.5 Z"/></g>
<g><path style="opacity:0.957" fill="#e9dcb3" d="M 185.5,74.5 C 188.839,74.8897 192.173,75.3897 195.5,76C 198.525,78.2338 201.859,79.9005 205.5,81C 206.252,81.6708 206.586,82.5041 206.5,83.5C 199.548,80.1854 192.548,77.1854 185.5,74.5 Z"/></g>
<g><path style="opacity:0.967" fill="#e9ddb4" d="M 142.5,74.5 C 135.422,77.2028 128.422,80.2028 121.5,83.5C 121.908,82.3569 122.575,81.3569 123.5,80.5C 129.353,77.1293 135.686,75.1293 142.5,74.5 Z"/></g>
<g><path style="opacity:0.999" fill="#e0d29d" d="M 200.5,93.5 C 213.729,100.731 223.062,111.397 228.5,125.5C 229.256,129.767 230.589,133.767 232.5,137.5C 233.166,146.485 233.499,155.485 233.5,164.5C 233.5,165.167 233.5,165.833 233.5,166.5C 232.883,166.611 232.383,166.944 232,167.5C 231.502,164.183 231.335,160.85 231.5,157.5C 227.285,155.564 222.619,154.897 217.5,155.5C 216.71,156.609 216.21,157.942 216,159.5C 215.51,158.207 215.343,156.873 215.5,155.5C 213.389,156.38 211.389,156.38 209.5,155.5C 205.366,154.515 201.032,154.182 196.5,154.5C 196.5,157.833 196.5,161.167 196.5,164.5C 196.623,170.606 195.956,176.606 194.5,182.5C 193.596,183.209 193.263,184.209 193.5,185.5C 197.833,185.5 202.167,185.5 206.5,185.5C 206.833,185.5 207.167,185.5 207.5,185.5C 208.833,185.167 210.167,184.833 211.5,184.5C 215.298,185.483 219.298,185.817 223.5,185.5C 224.833,185.5 225.5,186.167 225.5,187.5C 220.305,187.179 215.305,187.513 210.5,188.5C 204.357,187.281 198.357,187.281 192.5,188.5C 186.068,187.193 179.734,187.193 173.5,188.5C 173.791,193.968 172.124,198.635 168.5,202.5C 165.833,202.5 163.167,202.5 160.5,202.5C 156.382,198.835 154.382,194.168 154.5,188.5C 147.976,187.268 141.309,187.268 134.5,188.5C 125.167,187.167 115.833,187.167 106.5,188.5C 106.5,188.833 106.5,189.167 106.5,189.5C 106.5,190.833 105.833,191.5 104.5,191.5C 103.662,191.158 103.328,190.492 103.5,189.5C 103.5,188.167 103.5,186.833 103.5,185.5C 107.167,185.5 110.833,185.5 114.5,185.5C 114.833,185.5 115.167,185.5 115.5,185.5C 116.5,184.833 117.5,184.167 118.5,183.5C 122.715,185.436 127.381,186.103 132.5,185.5C 132.833,185.5 133.167,185.5 133.5,185.5C 134.609,185.443 135.609,185.11 136.5,184.5C 142.31,185.49 148.31,185.823 154.5,185.5C 155.629,183.372 155.796,181.039 155,178.5C 153.358,173.746 151.858,169.079 150.5,164.5C 147.509,161.611 143.842,160.278 139.5,160.5C 137.5,160.5 135.5,160.5 133.5,160.5C 133.5,163.5 133.5,166.5 133.5,169.5C 133.672,170.492 133.338,171.158 132.5,171.5C 132.097,166.804 131.43,162.137 130.5,157.5C 129.583,156.873 128.583,156.539 127.5,156.5C 127.5,155.833 127.167,155.5 126.5,155.5C 126.5,155.167 126.5,154.833 126.5,154.5C 126.167,153.833 125.833,153.167 125.5,152.5C 125.5,150.5 125.5,148.5 125.5,146.5C 128.53,143.919 130.53,140.586 131.5,136.5C 132.29,135.391 132.79,134.058 133,132.5C 134.292,133.791 135.458,133.791 136.5,132.5C 137.391,131.89 138.391,131.557 139.5,131.5C 143.534,131.505 147.534,131.838 151.5,132.5C 153.589,133.891 155.922,134.558 158.5,134.5C 162.488,133.381 166.488,133.381 170.5,134.5C 174.273,134.343 175.273,132.676 173.5,129.5C 171.609,128.464 169.776,128.464 168,129.5C 165.957,128.421 164.624,126.754 164,124.5C 163.51,125.793 163.343,127.127 163.5,128.5C 162.448,128.649 161.448,128.483 160.5,128C 158.97,125.648 157.303,123.481 155.5,121.5C 154.833,121.833 154.167,122.167 153.5,122.5C 147.404,120.926 143.238,122.926 141,128.5C 140.329,129.252 139.496,129.586 138.5,129.5C 134.5,130.167 132.833,128.5 133.5,124.5C 133.649,123.448 133.483,122.448 133,121.5C 129.045,121.629 124.878,121.629 120.5,121.5C 119.504,121.414 118.671,121.748 118,122.5C 117.51,121.207 117.343,119.873 117.5,118.5C 123.31,119.711 128.977,119.711 134.5,118.5C 135.594,119.582 136.927,120.248 138.5,120.5C 139.713,120.253 140.38,119.586 140.5,118.5C 142.741,117.7 143.741,116.034 143.5,113.5C 148.84,112.777 154.173,111.943 159.5,111C 161.426,110.578 162.426,109.411 162.5,107.5C 162.842,106.662 163.508,106.328 164.5,106.5C 167.5,106.833 168.833,105.5 168.5,102.5C 167.209,102.263 166.209,102.596 165.5,103.5C 164.325,103.719 163.325,103.386 162.5,102.5C 163.95,101.15 164.617,99.4835 164.5,97.5C 159.167,96.8333 156.833,99.1667 157.5,104.5C 157.5,104.833 157.5,105.167 157.5,105.5C 154.01,106.604 151.01,105.937 148.5,103.5C 152.287,101.548 155.287,98.7142 157.5,95C 159.217,93.4412 161.217,92.6079 163.5,92.5C 167.167,92.5 170.833,92.5 174.5,92.5C 173.506,94.3344 173.506,96.0011 174.5,97.5C 176.288,98.6225 178.288,98.7891 180.5,98C 183.982,96.7858 187.315,95.2858 190.5,93.5C 190.833,93.5 191.167,93.5 191.5,93.5C 192.209,94.404 193.209,94.7373 194.5,94.5C 194.281,93.325 194.614,92.325 195.5,91.5C 196.842,93.0049 198.508,93.6715 200.5,93.5 Z M 138.5,121.5 C 139.043,121.56 139.376,121.893 139.5,122.5C 138.635,123.583 137.635,123.749 136.5,123C 137.416,122.722 138.082,122.222 138.5,121.5 Z M 173.5,139.5 C 176.699,142.718 179.033,146.552 180.5,151C 179.072,151.579 177.738,151.412 176.5,150.5C 174.624,147.079 173.624,143.412 173.5,139.5 Z M 207.5,146.5 C 208.038,148.117 208.371,149.784 208.5,151.5C 204.833,151.5 201.167,151.5 197.5,151.5C 197.784,148.223 197.451,145.057 196.5,142C 201.609,140.391 205.275,141.891 207.5,146.5 Z M 230.5,150.5 C 226.366,151.485 222.032,151.818 217.5,151.5C 217.304,147.359 219.304,145.025 223.5,144.5C 225.837,146.522 228.17,148.522 230.5,150.5 Z M 187.5,156.5 C 189.265,155.539 191.265,155.205 193.5,155.5C 193.5,158.5 193.5,161.5 193.5,164.5C 192.871,171.235 191.871,177.901 190.5,184.5C 185.968,184.818 181.634,184.485 177.5,183.5C 177.305,179.085 177.805,174.751 179,170.5C 182.656,166.521 185.822,162.188 188.5,157.5C 188.376,156.893 188.043,156.56 187.5,156.5 Z"/></g>
<g><path style="opacity:0.926" fill="#ede2bd" d="M 641.5,102.5 C 632.267,100.771 622.934,100.104 613.5,100.5C 623.001,98.018 632.334,98.6846 641.5,102.5 Z"/></g>
<g><path style="opacity:0.882" fill="#ece2bd" d="M 824.5,102.5 C 815.601,100.786 806.601,100.119 797.5,100.5C 800.483,99.6125 803.65,98.9458 807,98.5C 813.175,98.905 819.009,100.238 824.5,102.5 Z"/></g>
<g><path style="opacity:0.722" fill="#ede1be" d="M 165.5,103.5 C 164.399,104.598 163.066,104.765 161.5,104C 160.97,102.256 160.97,100.756 161.5,99.5C 159.918,101.015 158.584,102.681 157.5,104.5C 156.833,99.1667 159.167,96.8333 164.5,97.5C 164.617,99.4835 163.95,101.15 162.5,102.5C 163.325,103.386 164.325,103.719 165.5,103.5 Z"/></g>
<g><path style="opacity:0.655" fill="#ece1bc" d="M 353.5,112.5 C 353.5,108.833 353.5,105.167 353.5,101.5C 331.5,101.5 309.5,101.5 287.5,101.5C 287.5,105.167 287.5,108.833 287.5,112.5C 296.167,112.5 304.833,112.5 313.5,112.5C 313.5,134.833 313.5,157.167 313.5,179.5C 312.503,157.673 312.169,135.673 312.5,113.5C 303.827,113.666 295.16,113.5 286.5,113C 285.536,108.934 285.203,104.767 285.5,100.5C 308.5,100.5 331.5,100.5 354.5,100.5C 354.817,104.702 354.483,108.702 353.5,112.5 Z"/></g>
<g><path style="opacity:0.658" fill="#ebdcb6" d="M 391.5,101.5 C 393.978,100.836 396.645,100.503 399.5,100.5C 402.59,100.522 405.257,101.188 407.5,102.5C 402.26,101.551 396.927,101.218 391.5,101.5 Z"/></g>
<g><path style="opacity:1" fill="#e0d29d" d="M 613.5,100.5 C 622.934,100.104 632.267,100.771 641.5,102.5C 643.954,103.227 646.287,104.227 648.5,105.5C 648.828,108.172 650.328,109.839 653,110.5C 653.49,111.793 653.657,113.127 653.5,114.5C 652.5,116.167 651.167,117.5 649.5,118.5C 647.5,118.5 645.5,118.5 643.5,118.5C 633.823,112.365 623.489,111.031 612.5,114.5C 610.833,114.5 609.167,114.5 607.5,114.5C 607.5,115.5 607.5,116.5 607.5,117.5C 603.213,120.761 599.88,124.761 597.5,129.5C 596.778,129.918 596.278,130.584 596,131.5C 595.833,134.167 595.667,136.833 595.5,139.5C 595.294,143.469 595.961,147.135 597.5,150.5C 607.361,166.813 621.361,171.48 639.5,164.5C 640.787,163.129 641.453,161.295 641.5,159C 641.494,156.967 641.161,155.134 640.5,153.5C 634.5,152.833 628.5,152.167 622.5,151.5C 623.34,149.147 624.674,147.147 626.5,145.5C 627.906,145.027 628.573,144.027 628.5,142.5C 629.289,142.217 629.956,141.717 630.5,141C 638.159,140.5 645.826,140.334 653.5,140.5C 653.5,150.833 653.5,161.167 653.5,171.5C 653.027,172.906 652.027,173.573 650.5,173.5C 646.508,174.162 643.175,175.829 640.5,178.5C 639.833,178.5 639.167,178.5 638.5,178.5C 627.773,179.996 617.106,179.663 606.5,177.5C 596.317,173.984 588.983,167.317 584.5,157.5C 581.957,149.38 580.957,141.046 581.5,132.5C 581.5,132.167 581.5,131.833 581.5,131.5C 583.868,129.044 584.868,126.044 584.5,122.5C 586.408,121.514 587.408,119.848 587.5,117.5C 593.473,107.885 602.14,102.218 613.5,100.5 Z"/></g>
<g><path style="opacity:0.655" fill="#ede2be" d="M 732.5,104.5 C 729.157,103.776 725.824,102.943 722.5,102C 708.837,101.5 695.171,101.333 681.5,101.5C 681.5,105.167 681.5,108.833 681.5,112.5C 694.011,112.171 706.345,112.505 718.5,113.5C 705.833,113.5 693.167,113.5 680.5,113.5C 680.5,109.167 680.5,104.833 680.5,100.5C 694.837,100.333 709.171,100.5 723.5,101C 726.865,101.505 729.865,102.672 732.5,104.5 Z"/></g>
<g><path style="opacity:0.654" fill="#ede2be" d="M 1020.5,104.5 C 1017.16,103.776 1013.82,102.943 1010.5,102C 996.837,101.5 983.171,101.333 969.5,101.5C 969.5,105.167 969.5,108.833 969.5,112.5C 982.011,112.171 994.345,112.505 1006.5,113.5C 993.833,113.5 981.167,113.5 968.5,113.5C 968.5,109.167 968.5,104.833 968.5,100.5C 982.837,100.333 997.171,100.5 1011.5,101C 1014.86,101.505 1017.86,102.672 1020.5,104.5 Z"/></g>
<g><path style="opacity:0.248" fill="#f2eed2" d="M 459.5,100.5 C 459.5,124.167 459.5,147.833 459.5,171.5C 460.5,171.5 461.5,171.5 462.5,171.5C 461.855,172.812 460.855,173.812 459.5,174.5C 458.171,149.67 458.171,125.003 459.5,100.5 Z"/></g>
<g><path style="opacity:1" fill="#e5d6a9" d="M 459.5,100.5 C 464.167,100.5 468.833,100.5 473.5,100.5C 473.5,100.833 473.5,101.167 473.5,101.5C 469.167,101.5 464.833,101.5 460.5,101.5C 460.5,124.5 460.5,147.5 460.5,170.5C 461.5,170.5 462.5,170.5 463.5,170.5C 463.5,171.167 463.167,171.5 462.5,171.5C 461.5,171.5 460.5,171.5 459.5,171.5C 459.5,147.833 459.5,124.167 459.5,100.5 Z"/></g>
<g><path style="opacity:0.973" fill="#e6d7a9" d="M 525.5,105.5 C 525.5,104.5 525.5,103.5 525.5,102.5C 521.486,102.334 517.486,102.501 513.5,103C 510.134,106.335 506.468,109.168 502.5,111.5C 505.478,108.187 508.478,104.853 511.5,101.5C 517.472,100.336 523.472,100.17 529.5,101C 527.93,102.397 526.596,103.897 525.5,105.5 Z"/></g>
<g><path style="opacity:1" fill="#e0d29d" d="M 732.5,104.5 C 740.531,107.867 745.198,113.867 746.5,122.5C 746.665,126.182 746.499,129.848 746,133.5C 744.738,137.672 743.238,141.672 741.5,145.5C 738.783,149.218 735.45,152.218 731.5,154.5C 737.29,162.579 742.957,170.746 748.5,179C 742.804,179.83 737.137,179.663 731.5,178.5C 726.623,171.246 721.623,164.079 716.5,157C 709.842,156.5 703.175,156.334 696.5,156.5C 694.537,163.424 693.87,170.757 694.5,178.5C 690.167,178.5 685.833,178.5 681.5,178.5C 681.5,167.167 681.5,155.833 681.5,144.5C 693.171,144.667 704.838,144.5 716.5,144C 730.111,141.628 734.611,133.795 730,120.5C 727.144,116.492 723.311,114.158 718.5,113.5C 706.345,112.505 694.011,112.171 681.5,112.5C 681.5,108.833 681.5,105.167 681.5,101.5C 695.171,101.333 708.837,101.5 722.5,102C 725.824,102.943 729.157,103.776 732.5,104.5 Z"/></g>
<g><path style="opacity:1" fill="#e0d29e" d="M 797.5,100.5 C 806.601,100.119 815.601,100.786 824.5,102.5C 830.195,104.008 834.862,107.008 838.5,111.5C 838.539,112.583 838.873,113.583 839.5,114.5C 841.236,116.903 843.236,118.903 845.5,120.5C 846.886,127.435 847.886,134.435 848.5,141.5C 848.129,147.64 847.129,153.64 845.5,159.5C 842.552,165.448 838.219,170.115 832.5,173.5C 827.294,175.598 821.961,177.431 816.5,179C 807.743,179.808 799.077,179.308 790.5,177.5C 782.112,175.113 775.778,170.113 771.5,162.5C 771.534,158.566 769.868,155.232 766.5,152.5C 760.719,131.689 767.052,115.523 785.5,104C 789.307,102.119 793.307,100.953 797.5,100.5 Z M 830.5,124.5 C 833.967,131.031 835.3,138.031 834.5,145.5C 833.698,148.574 832.698,151.574 831.5,154.5C 827.742,159.594 823.075,163.594 817.5,166.5C 804.386,169.809 793.386,166.476 784.5,156.5C 782.581,152.743 781.248,148.743 780.5,144.5C 779.646,137.335 780.979,130.668 784.5,124.5C 794.583,112.397 806.917,109.564 821.5,116C 825,118.334 828,121.168 830.5,124.5 Z"/></g>
<g><path style="opacity:1" fill="#dfd19b" d="M 353.5,112.5 C 344.5,112.5 335.5,112.5 326.5,112.5C 326.5,134.833 326.5,157.167 326.5,179.5C 322.167,179.5 317.833,179.5 313.5,179.5C 313.5,157.167 313.5,134.833 313.5,112.5C 304.833,112.5 296.167,112.5 287.5,112.5C 287.5,108.833 287.5,105.167 287.5,101.5C 309.5,101.5 331.5,101.5 353.5,101.5C 353.5,105.167 353.5,108.833 353.5,112.5 Z"/></g>
<g><path style="opacity:1" fill="#dfd19c" d="M 391.5,101.5 C 396.927,101.218 402.26,101.551 407.5,102.5C 407.571,105.742 408.571,108.575 410.5,111C 409.209,113.09 409.876,114.424 412.5,115C 411.792,118.413 413.126,120.913 416.5,122.5C 417.338,122.842 417.672,123.508 417.5,124.5C 417.229,126.38 417.896,127.713 419.5,128.5C 420.441,130.05 421.107,131.716 421.5,133.5C 422.485,136.812 423.485,140.146 424.5,143.5C 425.183,143.863 425.85,144.196 426.5,144.5C 427.052,146.331 427.052,147.997 426.5,149.5C 426.968,151.134 427.968,152.3 429.5,153C 429.043,153.414 428.709,153.914 428.5,154.5C 429.766,155.724 430.933,157.057 432,158.5C 432.121,160.727 432.954,162.56 434.5,164C 434.043,164.414 433.709,164.914 433.5,165.5C 435.704,167.665 437.038,170.332 437.5,173.5C 438.357,174.425 439.357,175.092 440.5,175.5C 441.391,176.261 442.058,177.261 442.5,178.5C 437.198,179.663 431.864,179.829 426.5,179C 424.345,175.366 422.679,171.533 421.5,167.5C 421.66,165.801 421.494,164.134 421,162.5C 420.329,161.748 419.496,161.414 418.5,161.5C 418.611,160.883 418.944,160.383 419.5,160C 413.509,159.501 407.509,159.334 401.5,159.5C 402.11,152.042 406.11,148.709 413.5,149.5C 414.097,149.265 414.43,148.765 414.5,148C 414,146.5 413.5,145 413,143.5C 412.583,142.244 411.75,141.577 410.5,141.5C 410.222,137.268 409.056,133.268 407,129.5C 406.502,127.456 405.335,126.122 403.5,125.5C 403.66,123.801 403.494,122.134 403,120.5C 402.583,119.244 401.75,118.577 400.5,118.5C 400.5,117.5 400.5,116.5 400.5,115.5C 399.5,115.5 398.5,115.5 397.5,115.5C 396.833,118.167 396.167,120.833 395.5,123.5C 395.672,124.492 395.338,125.158 394.5,125.5C 392.707,127.426 391.707,129.759 391.5,132.5C 389.415,134.684 388.415,137.351 388.5,140.5C 386.166,142.176 385.166,144.509 385.5,147.5C 380.509,155.158 376.842,163.491 374.5,172.5C 374.5,172.833 374.5,173.167 374.5,173.5C 372.259,174.3 371.259,175.966 371.5,178.5C 367.116,178.826 362.783,178.492 358.5,177.5C 359.946,175.382 360.613,173.049 360.5,170.5C 363.829,166.839 365.829,162.506 366.5,157.5C 369.227,150.38 372.227,143.38 375.5,136.5C 378.375,134.751 379.708,132.085 379.5,128.5C 379.5,128.167 379.5,127.833 379.5,127.5C 380.376,127.631 381.043,127.298 381.5,126.5C 384.594,121.54 386.594,116.206 387.5,110.5C 390.469,108.38 391.802,105.38 391.5,101.5 Z"/></g>
<g><path style="opacity:1" fill="#e0d29e" d="M 473.5,101.5 C 473.168,114.517 473.501,127.517 474.5,140.5C 475.107,140.376 475.44,140.043 475.5,139.5C 477.833,136.5 480.5,133.833 483.5,131.5C 488.23,127.773 492.23,123.44 495.5,118.5C 497.5,115.833 499.833,113.5 502.5,111.5C 506.468,109.168 510.134,106.335 513.5,103C 517.486,102.501 521.486,102.334 525.5,102.5C 525.5,103.5 525.5,104.5 525.5,105.5C 516.172,114.995 507.006,124.662 498,134.5C 497.333,135.5 497.333,136.5 498,137.5C 499.802,138.789 500.969,140.456 501.5,142.5C 502.08,144.749 503.413,146.415 505.5,147.5C 507.914,148.911 509.581,150.911 510.5,153.5C 511.08,155.749 512.413,157.415 514.5,158.5C 517.645,161.46 520.312,164.793 522.5,168.5C 523.08,170.749 524.413,172.415 526.5,173.5C 527.5,173.833 528.167,174.5 528.5,175.5C 528.414,176.496 528.748,177.329 529.5,178C 522.817,179.098 516.484,178.264 510.5,175.5C 502.868,165.867 494.868,156.533 486.5,147.5C 478.452,154.881 470.785,162.548 463.5,170.5C 462.5,170.5 461.5,170.5 460.5,170.5C 460.5,147.5 460.5,124.5 460.5,101.5C 464.833,101.5 469.167,101.5 473.5,101.5 Z"/></g>
<g><path style="opacity:0.278" fill="#f1edcf" d="M 473.5,100.5 C 474.167,113.5 474.833,126.5 475.5,139.5C 475.44,140.043 475.107,140.376 474.5,140.5C 473.501,127.517 473.168,114.517 473.5,101.5C 473.5,101.167 473.5,100.833 473.5,100.5 Z"/></g>
<g><path style="opacity:0.523" fill="#ece3bc" d="M 886.5,101.5 C 886.167,101.5 885.833,101.5 885.5,101.5C 881.167,101.5 876.833,101.5 872.5,101.5C 872.5,118.5 872.5,135.5 872.5,152.5C 871.503,135.341 871.17,118.008 871.5,100.5C 876.695,100.179 881.695,100.513 886.5,101.5 Z"/></g>
<g><path style="opacity:1" fill="#e0d19c" d="M 885.5,101.5 C 885.333,118.503 885.5,135.503 886,152.5C 886.856,156.544 888.522,160.211 891,163.5C 892.011,164.337 893.178,164.67 894.5,164.5C 901.21,167.643 908.21,168.31 915.5,166.5C 922.339,165.734 925.672,162.068 925.5,155.5C 925.448,153.097 925.781,150.764 926.5,148.5C 927.496,133.009 927.83,117.342 927.5,101.5C 931.833,101.5 936.167,101.5 940.5,101.5C 940.5,118.833 940.5,136.167 940.5,153.5C 939.13,156.619 938.13,159.952 937.5,163.5C 935.077,170.424 930.41,175.258 923.5,178C 913.945,181.598 904.278,182.098 894.5,179.5C 890.546,177.173 886.546,174.839 882.5,172.5C 876.001,167.503 872.668,160.836 872.5,152.5C 872.5,135.5 872.5,118.5 872.5,101.5C 876.833,101.5 881.167,101.5 885.5,101.5 Z"/></g>
<g><path style="opacity:0.803" fill="#e5d8a8" d="M 885.5,101.5 C 885.833,101.5 886.167,101.5 886.5,101.5C 886.333,116.837 886.5,132.17 887,147.5C 886.921,154.47 889.421,160.137 894.5,164.5C 893.178,164.67 892.011,164.337 891,163.5C 888.522,160.211 886.856,156.544 886,152.5C 885.5,135.503 885.333,118.503 885.5,101.5 Z"/></g>
<g><path style="opacity:0.572" fill="#ebe3bb" d="M 940.5,153.5 C 940.5,136.167 940.5,118.833 940.5,101.5C 936.167,101.5 931.833,101.5 927.5,101.5C 927.83,117.342 927.496,133.009 926.5,148.5C 926.5,132.5 926.5,116.5 926.5,100.5C 931.5,100.5 936.5,100.5 941.5,100.5C 941.83,118.341 941.497,136.008 940.5,153.5 Z"/></g>
<g><path style="opacity:1" fill="#e0d19c" d="M 1020.5,104.5 C 1027.22,107.389 1031.72,112.389 1034,119.5C 1037.69,142.64 1027.86,154.974 1004.5,156.5C 996.833,156.5 989.167,156.5 981.5,156.5C 981.5,163.833 981.5,171.167 981.5,178.5C 977.5,178.5 973.5,178.5 969.5,178.5C 969.5,167.167 969.5,155.833 969.5,144.5C 980.505,144.667 991.505,144.5 1002.5,144C 1017.29,142.539 1022.46,134.705 1018,120.5C 1015.14,116.492 1011.31,114.158 1006.5,113.5C 994.345,112.505 982.011,112.171 969.5,112.5C 969.5,108.833 969.5,105.167 969.5,101.5C 983.171,101.333 996.837,101.5 1010.5,102C 1013.82,102.943 1017.16,103.776 1020.5,104.5 Z"/></g>
<g><path style="opacity:0.69" fill="#eee6c3" d="M 165.5,103.5 C 166.209,102.596 167.209,102.263 168.5,102.5C 168.833,105.5 167.5,106.833 164.5,106.5C 165.429,105.685 166.429,104.852 167.5,104C 166.906,103.536 166.239,103.369 165.5,103.5 Z"/></g>
<g><path style="opacity:0.957" fill="#ebdfb9" d="M 148.5,103.5 C 151.01,105.937 154.01,106.604 157.5,105.5C 157.516,107.484 156.516,108.484 154.5,108.5C 152.443,106.688 150.276,106.355 148,107.5C 145.981,105.876 146.148,104.543 148.5,103.5 Z"/></g>
<g><path style="opacity:1" fill="#e8dcb2" d="M 391.5,101.5 C 391.802,105.38 390.469,108.38 387.5,110.5C 388.075,107.088 389.408,104.088 391.5,101.5 Z"/></g>
<g><path style="opacity:1" fill="#ebddb7" d="M 648.5,105.5 C 651.319,107.419 653.986,109.585 656.5,112C 655.627,113.045 654.627,113.878 653.5,114.5C 653.657,113.127 653.49,111.793 653,110.5C 650.328,109.839 648.828,108.172 648.5,105.5 Z"/></g>
<g><path style="opacity:1" fill="#e8dcb1" d="M 407.5,102.5 C 411.011,108.861 414.011,115.528 416.5,122.5C 413.126,120.913 411.792,118.413 412.5,115C 409.876,114.424 409.209,113.09 410.5,111C 408.571,108.575 407.571,105.742 407.5,102.5 Z"/></g>
<g><path style="opacity:0.624" fill="#ece2bb" d="M 353.5,112.5 C 345.016,113.493 336.349,113.826 327.5,113.5C 327.831,135.673 327.497,157.673 326.5,179.5C 326.5,157.167 326.5,134.833 326.5,112.5C 335.5,112.5 344.5,112.5 353.5,112.5 Z"/></g>
<g><path style="opacity:1" fill="#ece1bc" d="M 612.5,114.5 C 611.035,115.737 609.368,116.737 607.5,117.5C 607.5,116.5 607.5,115.5 607.5,114.5C 609.167,114.5 610.833,114.5 612.5,114.5 Z"/></g>
<g><path style="opacity:0.475" fill="#efe7c6" d="M 400.5,118.5 C 399.778,118.082 399.278,117.416 399,116.5C 398.33,119.174 397.163,121.507 395.5,123.5C 396.167,120.833 396.833,118.167 397.5,115.5C 398.5,115.5 399.5,115.5 400.5,115.5C 400.5,116.5 400.5,117.5 400.5,118.5 Z"/></g>
<g><path style="opacity:0.82" fill="#e9dcb4" d="M 838.5,111.5 C 841.547,113.918 843.88,116.918 845.5,120.5C 843.236,118.903 841.236,116.903 839.5,114.5C 838.873,113.583 838.539,112.583 838.5,111.5 Z"/></g>
<g><path style="opacity:1" fill="#ecddb9" d="M 643.5,118.5 C 645.5,118.5 647.5,118.5 649.5,118.5C 647.298,122.114 645.298,122.114 643.5,118.5 Z"/></g>
<g><path style="opacity:0.753" fill="#ede3bf" d="M 400.5,118.5 C 401.75,118.577 402.583,119.244 403,120.5C 403.494,122.134 403.66,123.801 403.5,125.5C 401.935,123.491 400.935,121.157 400.5,118.5 Z"/></g>
<g><path style="opacity:0.925" fill="#e8dcb1" d="M 185.5,86.5 C 191.192,87.5144 196.192,89.8478 200.5,93.5C 198.508,93.6715 196.842,93.0049 195.5,91.5C 194.614,92.325 194.281,93.325 194.5,94.5C 193.209,94.7373 192.209,94.404 191.5,93.5C 192.239,93.631 192.906,93.4643 193.5,93C 189.529,89.5262 188.529,89.6929 190.5,93.5C 187.315,95.2858 183.982,96.7858 180.5,98C 178.288,98.7891 176.288,98.6225 174.5,97.5C 176.288,97.7852 177.955,97.4519 179.5,96.5C 168.395,82.9006 157.562,83.2339 147,97.5C 144.432,101.612 142.765,105.945 142,110.5C 149.236,112.152 156.069,111.152 162.5,107.5C 162.426,109.411 161.426,110.578 159.5,111C 154.173,111.943 148.84,112.777 143.5,113.5C 143.741,116.034 142.741,117.7 140.5,118.5C 140.38,119.586 139.713,120.253 138.5,120.5C 136.927,120.248 135.594,119.582 134.5,118.5C 128.977,119.711 123.31,119.711 117.5,118.5C 117.343,119.873 117.51,121.207 118,122.5C 118.671,121.748 119.504,121.414 120.5,121.5C 116.142,130.943 113.809,140.943 113.5,151.5C 113.197,147.355 113.03,143.021 113,138.5C 112.617,139.056 112.117,139.389 111.5,139.5C 112.044,133.656 113.378,127.989 115.5,122.5C 112.232,121.589 108.732,121.255 105,121.5C 99.6836,130.761 96.8503,140.761 96.5,151.5C 101.167,151.5 105.833,151.5 110.5,151.5C 105.695,152.487 100.695,152.821 95.5,152.5C 95.6641,149.813 95.4974,147.146 95,144.5C 93.9246,148.77 93.4246,153.103 93.5,157.5C 92.8613,125.311 107.195,102.145 136.5,88C 152.808,81.4294 169.142,80.9294 185.5,86.5 Z M 140.5,118.5 C 137.988,117.784 137.988,116.784 140.5,115.5C 141.562,116.425 141.562,117.425 140.5,118.5 Z M 134.5,93.5 C 126.852,100.482 121.186,108.815 117.5,118.5C 113.818,118.665 110.152,118.499 106.5,118C 113.551,107.109 122.884,98.9419 134.5,93.5 Z M 147.5,90.5 C 141.561,99.0468 137.228,108.38 134.5,118.5C 130.116,118.826 125.783,118.492 121.5,117.5C 126.819,105.182 135.486,96.1824 147.5,90.5 Z M 180.5,89.5 C 182.611,90.7359 184.611,92.2359 186.5,94C 185.5,94.5 184.5,95 183.5,95.5C 182.018,93.5171 180.351,91.6837 178.5,90C 179.094,89.5357 179.761,89.369 180.5,89.5 Z M 111.5,139.5 C 110.517,143.298 110.183,147.298 110.5,151.5C 105.833,151.5 101.167,151.5 96.5,151.5C 96.8503,140.761 99.6836,130.761 105,121.5C 108.732,121.255 112.232,121.589 115.5,122.5C 113.378,127.989 112.044,133.656 111.5,139.5 Z"/></g>
<g><path style="opacity:1" fill="#f3f0d5" d="M 191.5,93.5 C 191.167,93.5 190.833,93.5 190.5,93.5C 188.529,89.6929 189.529,89.5262 193.5,93C 192.906,93.4643 192.239,93.631 191.5,93.5 Z"/></g>
<g><path style="opacity:1" fill="#ede2bf" d="M 174.5,92.5 C 170.833,92.5 167.167,92.5 163.5,92.5C 167.192,89.9887 170.858,89.9887 174.5,92.5 Z"/></g>
<g><path style="opacity:1" fill="#e0d19c" d="M 185.5,86.5 C 186.091,87.1515 186.757,87.8182 187.5,88.5C 186.112,91.0789 184.612,91.0789 183,88.5C 182.329,89.2524 181.496,89.5858 180.5,89.5C 177.467,88.8796 174.467,87.713 171.5,86C 172.729,85.2189 174.062,84.7189 175.5,84.5C 178.782,85.4877 182.115,86.1543 185.5,86.5 Z"/></g>
<g><path style="opacity:1" fill="#e0d19c" d="M 150.5,84.5 C 152.655,84.372 154.655,84.872 156.5,86C 152.612,87.3784 148.612,88.3784 144.5,89C 143.069,89.4652 141.903,90.2986 141,91.5C 140.219,90.0563 140.386,88.723 141.5,87.5C 142.086,87.7093 142.586,88.0426 143,88.5C 145.202,86.503 147.702,85.1697 150.5,84.5 Z"/></g>
<g><path style="opacity:1" fill="#ece2bc" d="M 587.5,117.5 C 587.408,119.848 586.408,121.514 584.5,122.5C 584.75,120.326 585.75,118.659 587.5,117.5 Z"/></g>
<g><path style="opacity:1" fill="#eadeb6" d="M 387.5,110.5 C 386.594,116.206 384.594,121.54 381.5,126.5C 381.043,127.298 380.376,127.631 379.5,127.5C 381.93,121.643 384.597,115.977 387.5,110.5 Z"/></g>
<g><path style="opacity:0.69" fill="#eee5c3" d="M 495.5,118.5 C 492.23,123.44 488.23,127.773 483.5,131.5C 486.77,126.56 490.77,122.227 495.5,118.5 Z"/></g>
<g><path style="opacity:0.975" fill="#e8dbaf" d="M 82.5,112.5 C 79.4463,122.548 76.7796,132.714 74.5,143C 76.3501,145.018 78.3501,146.851 80.5,148.5C 81.0133,144.879 82.0133,141.546 83.5,138.5C 82.0029,150.222 82.3362,161.889 84.5,173.5C 82.9891,171.524 82.1558,169.191 82,166.5C 81.501,162.179 81.3343,157.846 81.5,153.5C 78.3222,150.155 75.3222,146.655 72.5,143C 73.9653,132.106 77.2986,121.939 82.5,112.5 Z"/></g>
<g><path style="opacity:0.478" fill="#ede3bf" d="M 155.5,121.5 C 157.935,128.735 157.268,129.068 153.5,122.5C 154.167,122.167 154.833,121.833 155.5,121.5 Z"/></g>
<g><path style="opacity:0.761" fill="#efe6c5" d="M 830.5,124.5 C 832.959,126.052 834.459,128.385 835,131.5C 835.815,136.352 835.648,141.019 834.5,145.5C 835.3,138.031 833.967,131.031 830.5,124.5 Z"/></g>
<g><path style="opacity:0.894" fill="#eadfb6" d="M 233.5,110.5 C 234.496,110.414 235.329,110.748 236,111.5C 240.249,118.649 242.749,126.316 243.5,134.5C 240.766,126.31 237.433,118.31 233.5,110.5 Z"/></g>
<g><path style="opacity:0.91" fill="#ece3be" d="M 584.5,122.5 C 584.868,126.044 583.868,129.044 581.5,131.5C 581.69,128.145 582.69,125.145 584.5,122.5 Z"/></g>
<g><path style="opacity:0.345" fill="#f2edd0" d="M 417.5,124.5 C 418.674,125.514 419.34,126.847 419.5,128.5C 417.896,127.713 417.229,126.38 417.5,124.5 Z"/></g>
<g><path style="opacity:1" fill="#ebe1ba" d="M 228.5,125.5 C 230.806,129.085 232.139,133.085 232.5,137.5C 230.589,133.767 229.256,129.767 228.5,125.5 Z"/></g>
<g><path style="opacity:1" fill="#e5d8a9" d="M 245.5,112.5 C 250.019,120.545 253.019,129.211 254.5,138.5C 253.5,138.5 252.5,138.5 251.5,138.5C 251.33,137.178 251.663,136.011 252.5,135C 250.091,130.781 248.257,126.281 247,121.5C 246.047,118.568 245.547,115.568 245.5,112.5 Z"/></g>
<g><path style="opacity:0.525" fill="#ede4bf" d="M 394.5,125.5 C 394.293,128.241 393.293,130.574 391.5,132.5C 391.707,129.759 392.707,127.426 394.5,125.5 Z"/></g>
<g><path style="opacity:0.671" fill="#ece3bd" d="M 89.5,118.5 C 87.4689,124.922 85.4689,131.255 83.5,137.5C 83.9179,130.583 85.9179,124.25 89.5,118.5 Z"/></g>
<g><path style="opacity:0.51" fill="#efe8c8" d="M 784.5,124.5 C 780.979,130.668 779.646,137.335 780.5,144.5C 779.527,142.052 779.194,139.385 779.5,136.5C 779.958,132.462 780.624,128.462 781.5,124.5C 782.5,124.5 783.5,124.5 784.5,124.5 Z"/></g>
<g><path style="opacity:0.859" fill="#ece0ba" d="M 151.5,132.5 C 147.534,131.838 143.534,131.505 139.5,131.5C 143.672,128.866 147.672,129.2 151.5,132.5 Z"/></g>
<g><path style="opacity:1" fill="#ebe1ba" d="M 403.5,125.5 C 405.335,126.122 406.502,127.456 407,129.5C 409.056,133.268 410.222,137.268 410.5,141.5C 407.655,136.469 405.322,131.136 403.5,125.5 Z"/></g>
<g><path style="opacity:1" fill="#eadeb6" d="M 133.5,124.5 C 132.833,128.5 134.5,130.167 138.5,129.5C 137.602,130.158 136.602,130.824 135.5,131.5C 135.624,132.107 135.957,132.44 136.5,132.5C 135.458,133.791 134.292,133.791 133,132.5C 132.79,134.058 132.29,135.391 131.5,136.5C 131.344,132.236 132.011,128.236 133.5,124.5 Z"/></g>
<g><path style="opacity:1" fill="#ebe0b8" d="M 379.5,128.5 C 379.708,132.085 378.375,134.751 375.5,136.5C 376.326,133.515 377.659,130.849 379.5,128.5 Z"/></g>
<g><path style="opacity:0.718" fill="#ece1bc" d="M 173.5,129.5 C 175.273,132.676 174.273,134.343 170.5,134.5C 172.69,133.626 173.69,131.959 173.5,129.5 Z"/></g>
<g><path style="opacity:0.951" fill="#e8dcb2" d="M 845.5,120.5 C 852.167,133.5 852.167,146.5 845.5,159.5C 847.129,153.64 848.129,147.64 848.5,141.5C 847.886,134.435 846.886,127.435 845.5,120.5 Z"/></g>
<g><path style="opacity:0.336" fill="#f2edd1" d="M 581.5,132.5 C 580.957,141.046 581.957,149.38 584.5,157.5C 582.672,154.865 581.505,151.865 581,148.5C 580.183,142.984 580.349,137.65 581.5,132.5 Z"/></g>
<g><path style="opacity:1" fill="#fdfcf8" d="M 185.5,136.5 C 188.423,137.295 191.09,138.628 193.5,140.5C 188.904,142.65 186.237,141.317 185.5,136.5 Z"/></g>
<g><path style="opacity:0.624" fill="#ede5c2" d="M 391.5,132.5 C 391.02,135.443 390.02,138.11 388.5,140.5C 388.415,137.351 389.415,134.684 391.5,132.5 Z"/></g>
<g><path style="opacity:0.207" fill="#f0eaca" d="M 597.5,129.5 C 596.167,136.5 596.167,143.5 597.5,150.5C 595.961,147.135 595.294,143.469 595.5,139.5C 595.667,136.833 595.833,134.167 596,131.5C 596.278,130.584 596.778,129.918 597.5,129.5 Z"/></g>
<g><path style="opacity:0.912" fill="#e8dbb2" d="M 131.5,136.5 C 130.53,140.586 128.53,143.919 125.5,146.5C 125.5,146.167 125.5,145.833 125.5,145.5C 126.723,141.951 128.723,138.951 131.5,136.5 Z"/></g>
<g><path style="opacity:0.943" fill="#e8daae" d="M 254.5,138.5 C 260.357,140.93 266.023,143.597 271.5,146.5C 266.33,145.254 261.33,143.42 256.5,141C 255.244,140.583 254.577,139.75 254.5,138.5 Z"/></g>
<g><path style="opacity:0.671" fill="#ebe1ba" d="M 746.5,122.5 C 748.918,131.025 747.251,138.692 741.5,145.5C 743.238,141.672 744.738,137.672 746,133.5C 746.499,129.848 746.665,126.182 746.5,122.5 Z"/></g>
<g><path style="opacity:1" fill="#ece2bd" d="M 653.5,171.5 C 653.5,161.167 653.5,150.833 653.5,140.5C 645.826,140.334 638.159,140.5 630.5,141C 629.956,141.717 629.289,142.217 628.5,142.5C 628.511,140.983 629.177,139.816 630.5,139C 638.746,138.185 646.912,138.352 655,139.5C 655.667,149.833 655.667,160.167 655,170.5C 654.617,171.056 654.117,171.389 653.5,171.5 Z"/></g>
<g><path style="opacity:1" fill="#ebe0b9" d="M 421.5,133.5 C 423.731,136.836 425.397,140.503 426.5,144.5C 425.85,144.196 425.183,143.863 424.5,143.5C 423.485,140.146 422.485,136.812 421.5,133.5 Z"/></g>
<g><path style="opacity:0.722" fill="#eae0b7" d="M 176.5,150.5 C 177.738,151.412 179.072,151.579 180.5,151C 179.033,146.552 176.699,142.718 173.5,139.5C 173.167,138.167 172.833,138.167 172.5,139.5C 172.461,136.848 173.628,136.848 176,139.5C 178.947,143.39 180.78,147.723 181.5,152.5C 179.219,152.923 177.552,152.256 176.5,150.5 Z"/></g>
<g><path style="opacity:0.804" fill="#ede2be" d="M 501.5,142.5 C 503.587,143.585 504.92,145.251 505.5,147.5C 503.413,146.415 502.08,144.749 501.5,142.5 Z"/></g>
<g><path style="opacity:0.608" fill="#eee6c3" d="M 388.5,140.5 C 387.736,143.018 386.736,145.351 385.5,147.5C 385.166,144.509 386.166,142.176 388.5,140.5 Z"/></g>
<g><path style="opacity:1" fill="#ebe1bb" d="M 410.5,141.5 C 411.75,141.577 412.583,142.244 413,143.5C 413.5,145 414,146.5 414.5,148C 414.43,148.765 414.097,149.265 413.5,149.5C 411.94,147.046 410.94,144.38 410.5,141.5 Z"/></g>
<g><path style="opacity:0.392" fill="#f1eacc" d="M 628.5,142.5 C 628.573,144.027 627.906,145.027 626.5,145.5C 626.427,143.973 627.094,142.973 628.5,142.5 Z"/></g>
<g><path style="opacity:1" fill="#e7daae" d="M 779.5,136.5 C 779.194,139.385 779.527,142.052 780.5,144.5C 781.248,148.743 782.581,152.743 784.5,156.5C 782.222,154.233 780.389,151.567 779,148.5C 778.188,144.311 778.355,140.311 779.5,136.5 Z"/></g>
<g><path style="opacity:1" fill="#fdfcf9" d="M 192.5,149.5 C 193.885,150.302 193.718,150.969 192,151.5C 191.235,151.43 190.735,151.097 190.5,150.5C 191.167,150.167 191.833,149.833 192.5,149.5 Z"/></g>
<g><path style="opacity:0.51" fill="#eee5c2" d="M 244.5,139.5 C 245.972,143.919 246.638,148.586 246.5,153.5C 245.199,149.057 244.532,144.391 244.5,139.5 Z"/></g>
<g><path style="opacity:0.297" fill="#f0ebcb" d="M 125.5,145.5 C 125.5,145.833 125.5,146.167 125.5,146.5C 125.5,148.5 125.5,150.5 125.5,152.5C 121.298,152.817 117.298,152.483 113.5,151.5C 117.167,151.5 120.833,151.5 124.5,151.5C 124.205,149.265 124.539,147.265 125.5,145.5 Z"/></g>
<g><path style="opacity:1" fill="#f1edcf" d="M 192.5,149.5 C 192.56,148.957 192.893,148.624 193.5,148.5C 194.429,149.689 194.762,151.022 194.5,152.5C 192.473,152.662 190.473,152.495 188.5,152C 189.044,151.283 189.711,150.783 190.5,150.5C 190.735,151.097 191.235,151.43 192,151.5C 193.718,150.969 193.885,150.302 192.5,149.5 Z"/></g>
<g><path style="opacity:0.328" fill="#efe8c7" d="M 207.5,146.5 C 209.308,147.918 209.975,149.918 209.5,152.5C 205.298,152.817 201.298,152.483 197.5,151.5C 201.167,151.5 204.833,151.5 208.5,151.5C 208.371,149.784 208.038,148.117 207.5,146.5 Z"/></g>
<g><path style="opacity:0.317" fill="#f1eccd" d="M 230.5,150.5 C 231.043,150.56 231.376,150.893 231.5,151.5C 226.682,152.812 222.015,152.812 217.5,151.5C 222.032,151.818 226.366,151.485 230.5,150.5 Z"/></g>
<g><path style="opacity:0.671" fill="#ebe3bb" d="M 232.5,137.5 C 234.015,142.58 234.682,147.914 234.5,153.5C 234.499,157.349 234.165,161.016 233.5,164.5C 233.499,155.485 233.166,146.485 232.5,137.5 Z"/></g>
<g><path style="opacity:1" fill="#e4d1a2" d="M 113.5,151.5 C 117.298,152.483 121.298,152.817 125.5,152.5C 125.833,153.167 126.167,153.833 126.5,154.5C 121.167,154.5 115.833,154.5 110.5,154.5C 105.5,154.5 100.5,154.5 95.5,154.5C 95.7148,156.179 95.0481,157.179 93.5,157.5C 93.4246,153.103 93.9246,148.77 95,144.5C 95.4974,147.146 95.6641,149.813 95.5,152.5C 100.695,152.821 105.695,152.487 110.5,151.5C 110.183,147.298 110.517,143.298 111.5,139.5C 112.117,139.389 112.617,139.056 113,138.5C 113.03,143.021 113.197,147.355 113.5,151.5 Z"/></g>
<g><path style="opacity:0.5" fill="#ece5bf" d="M 622.5,151.5 C 628.5,152.167 634.5,152.833 640.5,153.5C 634.132,153.83 627.798,153.496 621.5,152.5C 621.624,151.893 621.957,151.56 622.5,151.5 Z"/></g>
<g><path style="opacity:1" fill="#e9ddb3" d="M 110.5,154.5 C 115.833,154.5 121.167,154.5 126.5,154.5C 126.5,154.833 126.5,155.167 126.5,155.5C 122.167,155.5 117.833,155.5 113.5,155.5C 113.5,156.5 113.5,157.5 113.5,158.5C 113.335,161.85 113.502,165.183 114,168.5C 114.232,169.737 114.732,170.737 115.5,171.5C 116.5,175.501 117.5,179.501 118.5,183.5C 117.5,184.167 116.5,184.833 115.5,185.5C 112.029,175.809 110.362,165.809 110.5,155.5C 110.5,155.167 110.5,154.833 110.5,154.5 Z"/></g>
<g><path style="opacity:0.769" fill="#eee5c2" d="M 510.5,153.5 C 512.587,154.585 513.92,156.251 514.5,158.5C 512.413,157.415 511.08,155.749 510.5,153.5 Z"/></g>
<g><path style="opacity:0.475" fill="#ede6c0" d="M 640.5,153.5 C 641.161,155.134 641.494,156.967 641.5,159C 641.453,161.295 640.787,163.129 639.5,164.5C 640.423,160.936 640.756,157.269 640.5,153.5 Z"/></g>
<g><path style="opacity:0.974" fill="#eadeb6" d="M 766.5,152.5 C 769.868,155.232 771.534,158.566 771.5,162.5C 768.793,159.753 767.127,156.42 766.5,152.5 Z"/></g>
<g><path style="opacity:1" fill="#e1d3a0" d="M 81.5,153.5 C 81.3343,157.846 81.501,162.179 82,166.5C 82.1558,169.191 82.9891,171.524 84.5,173.5C 86.1652,178.162 87.8318,182.828 89.5,187.5C 89.1413,191.131 90.4746,193.798 93.5,195.5C 101.184,206.85 110.851,216.184 122.5,223.5C 122.281,224.675 122.614,225.675 123.5,226.5C 129.211,230.506 135.544,232.506 142.5,232.5C 144.442,234.818 146.775,235.485 149.5,234.5C 153.992,235.051 158.326,235.718 162.5,236.5C 160.332,239.5 157.666,242 154.5,244C 123.412,240.542 99.9124,225.376 84,198.5C 79.0781,188.898 75.2448,178.898 72.5,168.5C 62.1667,163.667 51.8333,158.833 41.5,154C 54.8292,153.5 68.1625,153.333 81.5,153.5 Z"/></g>
<g><path style="opacity:1" fill="#eadcb4" d="M 969.5,144.5 C 969.5,155.833 969.5,167.167 969.5,178.5C 973.5,178.5 977.5,178.5 981.5,178.5C 981.5,171.167 981.5,163.833 981.5,156.5C 989.167,156.5 996.833,156.5 1004.5,156.5C 997.687,157.491 990.687,157.825 983.5,157.5C 983.5,164.833 983.5,172.167 983.5,179.5C 978.5,179.5 973.5,179.5 968.5,179.5C 968.172,167.655 968.505,155.988 969.5,144.5 Z"/></g>
<g><path style="opacity:0.195" fill="#f2edcf" d="M 209.5,155.5 C 205.5,155.5 201.5,155.5 197.5,155.5C 197.81,158.713 197.477,161.713 196.5,164.5C 197.477,161.713 197.81,158.713 197.5,155.5C 201.5,155.5 205.5,155.5 209.5,155.5 Z"/></g>
<g><path style="opacity:0.237" fill="#f4f0d6" d="M 193.5,164.5 C 193.5,161.5 193.5,158.5 193.5,155.5C 191.265,155.205 189.265,155.539 187.5,156.5C 185.076,156.808 182.743,156.474 180.5,155.5C 185.12,154.507 189.786,154.173 194.5,154.5C 194.813,158.042 194.479,161.375 193.5,164.5 Z"/></g>
<g><path style="opacity:1" fill="#e1d3a0" d="M 252.5,160.5 C 254.149,166.749 253.149,172.582 249.5,178C 250.386,180.112 250.386,182.278 249.5,184.5C 249.598,186.553 248.931,188.22 247.5,189.5C 245.707,191.426 244.707,193.759 244.5,196.5C 230.077,222.063 208.41,237.897 179.5,244C 174.931,253.638 170.264,263.138 165.5,272.5C 164.505,260.345 164.171,248.011 164.5,235.5C 168.371,235.815 172.038,235.482 175.5,234.5C 178.829,234.785 181.829,234.118 184.5,232.5C 204.328,226.585 220.328,215.252 232.5,198.5C 237.869,193.424 240.869,187.09 241.5,179.5C 241.5,179.167 241.5,178.833 241.5,178.5C 243.092,179.602 243.925,178.935 244,176.5C 244.498,173.518 244.665,170.518 244.5,167.5C 244.268,163.02 244.935,158.687 246.5,154.5C 248.854,156.188 250.854,158.188 252.5,160.5 Z"/></g>
<g><path style="opacity:1" fill="#e5d8a9" d="M 413.5,149.5 C 406.11,148.709 402.11,152.042 401.5,159.5C 407.509,159.334 413.509,159.501 419.5,160C 418.944,160.383 418.611,160.883 418.5,161.5C 411.8,161.83 405.134,161.497 398.5,160.5C 399.766,156.803 401.432,153.303 403.5,150C 406.817,149.502 410.15,149.335 413.5,149.5 Z"/></g>
<g><path style="opacity:1" fill="#ece3bd" d="M 681.5,144.5 C 681.5,155.833 681.5,167.167 681.5,178.5C 685.833,178.5 690.167,178.5 694.5,178.5C 693.87,170.757 694.537,163.424 696.5,156.5C 696.5,164.167 696.5,171.833 696.5,179.5C 691.167,179.5 685.833,179.5 680.5,179.5C 680.172,167.655 680.505,155.988 681.5,144.5 Z"/></g>
<g><path style="opacity:0.573" fill="#ede4c0" d="M 940.5,153.5 C 940.68,157.286 939.68,160.619 937.5,163.5C 938.13,159.952 939.13,156.619 940.5,153.5 Z"/></g>
<g><path style="opacity:0.755" fill="#ede5c0" d="M 127.5,156.5 C 128.583,156.539 129.583,156.873 130.5,157.5C 131.43,162.137 132.097,166.804 132.5,171.5C 132.5,173.5 132.5,175.5 132.5,177.5C 131.104,171.721 130.271,165.721 130,159.5C 128.955,158.627 128.122,157.627 127.5,156.5 Z"/></g>
<g><path style="opacity:1" fill="#e9ddb4" d="M 426.5,144.5 C 431.537,154.588 436.204,164.921 440.5,175.5C 439.357,175.092 438.357,174.425 437.5,173.5C 437.038,170.332 435.704,167.665 433.5,165.5C 433.709,164.914 434.043,164.414 434.5,164C 432.954,162.56 432.121,160.727 432,158.5C 430.933,157.057 429.766,155.724 428.5,154.5C 428.709,153.914 429.043,153.414 429.5,153C 427.968,152.3 426.968,151.134 426.5,149.5C 427.052,147.997 427.052,146.331 426.5,144.5 Z"/></g>
<g><path style="opacity:0.941" fill="#e7d9ac" d="M 925.5,155.5 C 925.672,162.068 922.339,165.734 915.5,166.5C 920.225,164.108 923.558,160.441 925.5,155.5 Z"/></g>
<g><path style="opacity:1" fill="#ece3be" d="M 418.5,161.5 C 419.496,161.414 420.329,161.748 421,162.5C 421.494,164.134 421.66,165.801 421.5,167.5C 420.13,165.75 419.13,163.75 418.5,161.5 Z"/></g>
<g><path style="opacity:0.929" fill="#e7d8ac" d="M 831.5,154.5 C 828.92,160.413 824.587,164.747 818.5,167.5C 817.893,167.376 817.56,167.043 817.5,166.5C 823.075,163.594 827.742,159.594 831.5,154.5 Z"/></g>
<g><path style="opacity:0.314" fill="#f1edcf" d="M 139.5,160.5 C 138.081,161.451 136.415,161.784 134.5,161.5C 134.5,164.167 134.5,166.833 134.5,169.5C 134.167,169.5 133.833,169.5 133.5,169.5C 133.5,166.5 133.5,163.5 133.5,160.5C 135.5,160.5 137.5,160.5 139.5,160.5 Z"/></g>
<g><path style="opacity:0.608" fill="#ede5c1" d="M 385.5,147.5 C 382.398,156.159 378.732,164.493 374.5,172.5C 376.842,163.491 380.509,155.158 385.5,147.5 Z"/></g>
<g><path style="opacity:0.722" fill="#f0eac9" d="M 113.5,158.5 C 114.449,162.657 115.116,166.99 115.5,171.5C 114.732,170.737 114.232,169.737 114,168.5C 113.502,165.183 113.335,161.85 113.5,158.5 Z"/></g>
<g><path style="opacity:1" fill="#e9dcb2" d="M 209.5,155.5 C 211.389,156.38 213.389,156.38 215.5,155.5C 215.343,156.873 215.51,158.207 216,159.5C 216.21,157.942 216.71,156.609 217.5,155.5C 217.339,165.136 215.672,174.469 212.5,183.5C 211.833,183.5 211.5,183.833 211.5,184.5C 210.167,184.833 208.833,185.167 207.5,185.5C 211.641,176.663 213.641,167.33 213.5,157.5C 211.62,157.771 210.287,157.104 209.5,155.5 Z"/></g>
<g><path style="opacity:0.639" fill="#eadfb7" d="M 366.5,157.5 C 365.829,162.506 363.829,166.839 360.5,170.5C 361.743,165.75 363.743,161.416 366.5,157.5 Z"/></g>
<g><path style="opacity:0.788" fill="#ede3c0" d="M 522.5,168.5 C 524.587,169.585 525.92,171.251 526.5,173.5C 524.413,172.415 523.08,170.749 522.5,168.5 Z"/></g>
<g><path style="opacity:1" fill="#e8dbb0" d="M 133.5,169.5 C 133.833,169.5 134.167,169.5 134.5,169.5C 135.445,174.114 136.112,178.781 136.5,183.5C 136.5,183.833 136.5,184.167 136.5,184.5C 135.609,185.11 134.609,185.443 133.5,185.5C 132.908,182.873 132.575,180.206 132.5,177.5C 132.5,175.5 132.5,173.5 132.5,171.5C 133.338,171.158 133.672,170.492 133.5,169.5 Z"/></g>
<g><path style="opacity:0.765" fill="#ece2bc" d="M 150.5,164.5 C 151.858,169.079 153.358,173.746 155,178.5C 155.796,181.039 155.629,183.372 154.5,185.5C 154.5,185.167 154.5,184.833 154.5,184.5C 152.958,177.874 151.624,171.207 150.5,164.5 Z"/></g>
<g><path style="opacity:1" fill="#eadfb6" d="M 252.5,160.5 C 253.812,161.145 254.812,162.145 255.5,163.5C 254.495,170.903 252.495,177.903 249.5,184.5C 250.386,182.278 250.386,180.112 249.5,178C 253.149,172.582 254.149,166.749 252.5,160.5 Z"/></g>
<g><path style="opacity:1" fill="#eadfb7" d="M 110.5,154.5 C 110.5,154.833 110.5,155.167 110.5,155.5C 105.833,155.5 101.167,155.5 96.5,155.5C 96.9504,165.302 99.2837,174.635 103.5,183.5C 107.313,184.167 110.979,184.834 114.5,185.5C 110.833,185.5 107.167,185.5 103.5,185.5C 103.5,186.833 103.5,188.167 103.5,189.5C 96.7869,180.007 93.4535,169.34 93.5,157.5C 95.0481,157.179 95.7148,156.179 95.5,154.5C 100.5,154.5 105.5,154.5 110.5,154.5 Z"/></g>
<g><path style="opacity:0.706" fill="#eadeb6" d="M 650.5,173.5 C 647.48,175.677 644.147,177.343 640.5,178.5C 643.175,175.829 646.508,174.162 650.5,173.5 Z"/></g>
<g><path style="opacity:0.804" fill="#eadcb5" d="M 882.5,172.5 C 886.546,174.839 890.546,177.173 894.5,179.5C 889.538,178.69 885.538,176.357 882.5,172.5 Z"/></g>
<g><path style="opacity:0.902" fill="#ebe0b8" d="M 244.5,167.5 C 244.665,170.518 244.498,173.518 244,176.5C 243.925,178.935 243.092,179.602 241.5,178.5C 242.368,174.686 243.368,171.019 244.5,167.5 Z"/></g>
<g><path style="opacity:1" fill="#e9ddb3" d="M 231.5,157.5 C 231.335,160.85 231.502,164.183 232,167.5C 232.383,166.944 232.883,166.611 233.5,166.5C 232.389,174.178 229.722,181.178 225.5,187.5C 225.5,186.167 224.833,185.5 223.5,185.5C 223.5,185.167 223.5,184.833 223.5,184.5C 227.821,175.882 230.487,166.882 231.5,157.5 Z"/></g>
<g><path style="opacity:0.773" fill="#e9dbb1" d="M 360.5,170.5 C 360.613,173.049 359.946,175.382 358.5,177.5C 362.783,178.492 367.116,178.826 371.5,178.5C 371.259,175.966 372.259,174.3 374.5,173.5C 374.123,175.258 373.456,176.925 372.5,178.5C 367.167,179.833 361.833,179.833 356.5,178.5C 357.661,175.642 358.994,172.975 360.5,170.5 Z"/></g>
<g><path style="opacity:0.774" fill="#e8d9af" d="M 510.5,175.5 C 516.484,178.264 522.817,179.098 529.5,178C 528.748,177.329 528.414,176.496 528.5,175.5C 529.812,176.145 530.812,177.145 531.5,178.5C 525.528,179.664 519.528,179.83 513.5,179C 512.29,177.961 511.29,176.794 510.5,175.5 Z"/></g>
<g><path style="opacity:0.884" fill="#e9dcb2" d="M 606.5,177.5 C 617.106,179.663 627.773,179.996 638.5,178.5C 627.718,182.595 617.051,182.261 606.5,177.5 Z"/></g>
<g><path style="opacity:0.783" fill="#e9dcb3" d="M 832.5,173.5 C 819.099,181.894 805.099,183.227 790.5,177.5C 799.077,179.308 807.743,179.808 816.5,179C 821.961,177.431 827.294,175.598 832.5,173.5 Z"/></g>
<g><path style="opacity:0.104" fill="#f5f2de" d="M 118.5,183.5 C 123.269,184.117 127.936,184.784 132.5,185.5C 127.381,186.103 122.715,185.436 118.5,183.5 Z"/></g>
<g><path style="opacity:0.095" fill="#f6f3e0" d="M 136.5,183.5 C 142.409,184.455 148.409,184.789 154.5,184.5C 154.5,184.833 154.5,185.167 154.5,185.5C 148.31,185.823 142.31,185.49 136.5,184.5C 136.5,184.167 136.5,183.833 136.5,183.5 Z"/></g>
<g><path style="opacity:0.085" fill="#f7f4e1" d="M 177.5,183.5 C 181.634,184.485 185.968,184.818 190.5,184.5C 185.985,185.812 181.318,185.812 176.5,184.5C 176.624,183.893 176.957,183.56 177.5,183.5 Z"/></g>
<g><path style="opacity:0.012" fill="#f6f3df" d="M 194.5,182.5 C 198.232,184.131 202.232,185.131 206.5,185.5C 202.167,185.5 197.833,185.5 193.5,185.5C 193.263,184.209 193.596,183.209 194.5,182.5 Z"/></g>
<g><path style="opacity:0.096" fill="#f6f3df" d="M 212.5,183.5 C 215.962,184.482 219.629,184.815 223.5,184.5C 223.5,184.833 223.5,185.167 223.5,185.5C 219.298,185.817 215.298,185.483 211.5,184.5C 211.5,183.833 211.833,183.5 212.5,183.5 Z"/></g>
<g><path style="opacity:1" fill="#e9dcb4" d="M 89.5,187.5 C 91.341,189.849 92.6743,192.515 93.5,195.5C 90.4746,193.798 89.1413,191.131 89.5,187.5 Z"/></g>
<g><path style="opacity:1" fill="#e8daaf" d="M 241.5,179.5 C 240.869,187.09 237.869,193.424 232.5,198.5C 235.793,192.249 238.793,185.916 241.5,179.5 Z"/></g>
<g><path style="opacity:0.443" fill="#efe8c7" d="M 247.5,189.5 C 247.293,192.241 246.293,194.574 244.5,196.5C 244.707,193.759 245.707,191.426 247.5,189.5 Z"/></g>
<g><path style="opacity:0.79" fill="#e9deb3" d="M 305.5,200.5 C 305.167,200.5 304.833,200.5 304.5,200.5C 302.085,199.186 299.252,198.519 296,198.5C 293.167,198.833 290.333,199.167 287.5,199.5C 289.631,200.169 291.631,200.835 293.5,201.5C 291.143,201.663 288.81,201.497 286.5,201C 285.663,199.989 285.33,198.822 285.5,197.5C 292.175,197.334 298.842,197.5 305.5,198C 306.774,198.977 306.774,199.811 305.5,200.5 Z"/></g>
<g><path style="opacity:0.985" fill="#e7d9ad" d="M 954.5,196.5 C 965.696,196.856 970.529,202.523 969,213.5C 964.422,220.426 958.255,222.259 950.5,219C 941.643,209.643 942.976,202.143 954.5,196.5 Z M 953.5,201.5 C 959.766,200.117 963.433,202.45 964.5,208.5C 964.246,213.255 961.746,215.922 957,216.5C 952.269,215.936 949.769,213.269 949.5,208.5C 950.071,205.687 951.404,203.354 953.5,201.5 Z"/></g>
<g><path style="opacity:1" fill="#e8dcb1" d="M 391.5,219.5 C 391.421,218.07 391.754,216.736 392.5,215.5C 390.955,214.548 389.288,214.215 387.5,214.5C 387.5,213.167 387.5,211.833 387.5,210.5C 388.151,211.091 388.818,211.757 389.5,212.5C 391.931,207.702 394.264,202.869 396.5,198C 398.259,197.202 399.926,197.369 401.5,198.5C 398.392,205.712 395.058,212.712 391.5,219.5 Z"/></g>
<g><path style="opacity:0.638" fill="#eadeb3" d="M 928.5,198.5 C 924.167,198.5 919.833,198.5 915.5,198.5C 915.17,205.532 915.503,212.532 916.5,219.5C 916.964,217.025 917.964,215.025 919.5,213.5C 919.662,215.527 919.495,217.527 919,219.5C 917.644,220.38 916.144,220.714 914.5,220.5C 914.5,212.833 914.5,205.167 914.5,197.5C 919.363,197.181 924.03,197.514 928.5,198.5 Z"/></g>
<g><path style="opacity:0.995" fill="#e5d7a9" d="M 1034.5,208.5 C 1033.2,209.108 1031.87,209.775 1030.5,210.5C 1029.58,210.457 1028.92,210.124 1028.5,209.5C 1031.09,206.994 1031.09,204.494 1028.5,202C 1025.85,201.503 1023.19,201.336 1020.5,201.5C 1020.5,204.167 1020.5,206.833 1020.5,209.5C 1023.08,210.224 1025.75,211.057 1028.5,212C 1025.64,212.183 1022.97,212.683 1020.5,213.5C 1020.5,215.833 1020.5,218.167 1020.5,220.5C 1018.86,220.714 1017.36,220.38 1016,219.5C 1015.5,212.174 1015.33,204.841 1015.5,197.5C 1021.29,197.096 1026.96,197.596 1032.5,199C 1034.23,201.904 1034.89,205.07 1034.5,208.5 Z M 1028.5,209.5 C 1025.83,209.5 1023.17,209.5 1020.5,209.5C 1020.5,206.833 1020.5,204.167 1020.5,201.5C 1023.19,201.336 1025.85,201.503 1028.5,202C 1031.09,204.494 1031.09,206.994 1028.5,209.5 Z"/></g>
<g><path style="opacity:1" fill="#e0d29d" d="M 304.5,200.5 C 302.167,200.5 299.833,200.5 297.5,200.5C 297.5,206.833 297.5,213.167 297.5,219.5C 296.5,219.5 295.5,219.5 294.5,219.5C 294.823,213.31 294.49,207.31 293.5,201.5C 291.631,200.835 289.631,200.169 287.5,199.5C 290.333,199.167 293.167,198.833 296,198.5C 299.252,198.519 302.085,199.186 304.5,200.5 Z"/></g>
<g><path style="opacity:1" fill="#e6d9ab" d="M 427.5,197.5 C 427.5,198.5 427.5,199.5 427.5,200.5C 423.629,200.185 419.962,200.518 416.5,201.5C 416.5,203.167 416.5,204.833 416.5,206.5C 419.689,207.166 423.023,207.833 426.5,208.5C 423.023,209.167 419.689,209.834 416.5,210.5C 416.181,212.75 416.681,214.75 418,216.5C 421.073,215.383 424.24,215.216 427.5,216C 429.592,216.953 429.925,218.286 428.5,220C 422.916,220.806 417.416,220.639 412,219.5C 411.5,212.174 411.334,204.841 411.5,197.5C 416.833,197.5 422.167,197.5 427.5,197.5 Z"/></g>
<g><path style="opacity:1" fill="#e4d6a5" d="M 445.5,197.5 C 445.5,203.833 445.5,210.167 445.5,216.5C 449.5,216.5 453.5,216.5 457.5,216.5C 457.5,217.5 457.5,218.5 457.5,219.5C 452.5,219.5 447.5,219.5 442.5,219.5C 441.508,212.352 441.175,205.019 441.5,197.5C 442.833,197.5 444.167,197.5 445.5,197.5 Z"/></g>
<g><path style="opacity:1" fill="#e3d5a3" d="M 499.5,199.5 C 499.762,200.978 499.429,202.311 498.5,203.5C 496.929,202.691 495.262,202.357 493.5,202.5C 493.5,201.5 493.5,200.5 493.5,199.5C 493.97,198.307 494.97,197.64 496.5,197.5C 498.03,197.64 499.03,198.307 499.5,199.5 Z"/></g>
<g><path style="opacity:0.196" fill="#f0e9c9" d="M 597.5,197.5 C 596.388,202.189 594.721,206.522 592.5,210.5C 593.213,205.676 594.88,201.343 597.5,197.5 Z"/></g>
<g><path style="opacity:1" fill="#ede3c0" d="M 632.5,197.5 C 632.5,200.5 632.5,203.5 632.5,206.5C 631.834,203.972 631.168,201.306 630.5,198.5C 629.167,205.5 629.167,212.5 630.5,219.5C 631.167,216.358 631.834,213.358 632.5,210.5C 632.833,210.5 633.167,210.5 633.5,210.5C 633.665,213.518 633.498,216.518 633,219.5C 631.333,220.833 629.667,220.833 628,219.5C 627.5,212.174 627.334,204.841 627.5,197.5C 629.167,197.5 630.833,197.5 632.5,197.5 Z"/></g>
<g><path style="opacity:0.392" fill="#efe9c9" d="M 693.5,197.5 C 693.5,204.833 693.5,212.167 693.5,219.5C 694.5,219.5 695.5,219.5 696.5,219.5C 696.205,217.265 696.539,215.265 697.5,213.5C 697.5,215.833 697.5,218.167 697.5,220.5C 695.833,220.5 694.167,220.5 692.5,220.5C 692.175,212.648 692.508,204.982 693.5,197.5 Z"/></g>
<g><path style="opacity:0.943" fill="#ece1bb" d="M 704.5,197.5 C 711.678,199.066 713.678,203.066 710.5,209.5C 710.813,206.753 710.48,204.086 709.5,201.5C 707.501,200.492 705.834,199.159 704.5,197.5 Z"/></g>
<g><path style="opacity:0.344" fill="#efeac9" d="M 982.5,197.5 C 982.064,204.317 982.731,210.984 984.5,217.5C 983.034,216.653 982.2,215.32 982,213.5C 981.183,207.984 981.349,202.65 982.5,197.5 Z"/></g>
<g><path style="opacity:1" fill="#e4d4a4" d="M 982.5,197.5 C 983.833,197.5 985.167,197.5 986.5,197.5C 986.5,202.833 986.5,208.167 986.5,213.5C 986.539,214.583 986.873,215.583 987.5,216.5C 986.675,217.386 985.675,217.719 984.5,217.5C 982.731,210.984 982.064,204.317 982.5,197.5 Z"/></g>
<g><path style="opacity:0.994" fill="#e6d9ab" d="M 998.5,218.5 C 997.391,217.71 996.058,217.21 994.5,217C 995.056,216.617 995.389,216.117 995.5,215.5C 997.356,209.718 998.023,203.718 997.5,197.5C 999.167,197.5 1000.83,197.5 1002.5,197.5C 1002.67,202.179 1002.5,206.845 1002,211.5C 1001.86,214.445 1000.69,216.779 998.5,218.5 Z"/></g>
<g><path style="opacity:0.362" fill="#f0eaca" d="M 427.5,197.5 C 429.466,198.255 429.8,199.421 428.5,201C 424.514,201.499 420.514,201.666 416.5,201.5C 419.962,200.518 423.629,200.185 427.5,200.5C 427.5,199.5 427.5,198.5 427.5,197.5 Z"/></g>
<g><path style="opacity:0.361" fill="#efeac9" d="M 678.5,197.5 C 680.443,198.078 680.777,199.078 679.5,200.5C 675.555,201.491 671.555,201.824 667.5,201.5C 670.962,200.518 674.629,200.185 678.5,200.5C 678.5,199.5 678.5,198.5 678.5,197.5 Z"/></g>
<g><path style="opacity:1" fill="#e8daaf" d="M 841.5,207.5 C 840.883,207.389 840.383,207.056 840,206.5C 839.506,208.134 839.34,209.801 839.5,211.5C 836.151,207.324 833.151,202.824 830.5,198C 832.579,197.192 834.579,197.359 836.5,198.5C 838.445,201.393 840.111,204.393 841.5,207.5 Z"/></g>
<g><path style="opacity:1" fill="#e7daae" d="M 387.5,210.5 C 386.352,209.105 385.352,209.272 384.5,211C 385.929,213.69 386.929,216.523 387.5,219.5C 383.423,212.981 380.09,205.981 377.5,198.5C 379.353,197.24 381.186,197.24 383,198.5C 384.791,202.411 386.291,206.411 387.5,210.5 Z"/></g>
<g><path style="opacity:1" fill="#e6d9ac" d="M 889.5,196.5 C 894.058,196.177 897.724,197.677 900.5,201C 900.387,202.28 899.72,203.113 898.5,203.5C 888.668,198.983 884.168,201.983 885,212.5C 888.192,216.065 892.025,217.065 896.5,215.5C 896.337,213.143 896.503,210.81 897,208.5C 898.113,207.289 899.28,207.289 900.5,208.5C 902.723,213.733 901.39,217.566 896.5,220C 882.778,221.616 877.612,215.782 881,202.5C 883.322,199.605 886.155,197.605 889.5,196.5 Z"/></g>
<g><path style="opacity:1" fill="#e9dcb3" d="M 160.5,202.5 C 163.167,202.5 165.833,202.5 168.5,202.5C 165.735,206.327 163.068,206.327 160.5,202.5 Z"/></g>
<g><path style="opacity:0.33" fill="#efeac8" d="M 304.5,200.5 C 304.833,200.5 305.167,200.5 305.5,200.5C 303.393,201.468 301.059,201.802 298.5,201.5C 298.5,207.833 298.5,214.167 298.5,220.5C 296.833,220.5 295.167,220.5 293.5,220.5C 293.5,214.167 293.5,207.833 293.5,201.5C 294.49,207.31 294.823,213.31 294.5,219.5C 295.5,219.5 296.5,219.5 297.5,219.5C 297.5,213.167 297.5,206.833 297.5,200.5C 299.833,200.5 302.167,200.5 304.5,200.5 Z"/></g>
<g><path style="opacity:0.918" fill="#e8dbb1" d="M 106.5,188.5 C 115.833,187.167 125.167,187.167 134.5,188.5C 141.309,187.268 147.976,187.268 154.5,188.5C 149.125,188.172 143.792,188.505 138.5,189.5C 141.212,199.426 145.878,208.259 152.5,216C 156.908,219.413 161.908,220.913 167.5,220.5C 165.034,221.634 162.367,221.801 159.5,221C 153.689,220.415 147.855,218.915 142,216.5C 141.308,217.025 140.808,217.692 140.5,218.5C 143.855,220.056 147.188,221.39 150.5,222.5C 130.771,218.639 115.438,208.306 104.5,191.5C 105.833,191.5 106.5,190.833 106.5,189.5C 113.017,198.515 121.017,206.015 130.5,212C 131.759,212.982 133.092,213.315 134.5,213C 127.242,206.316 121.575,198.483 117.5,189.5C 113.893,188.511 110.226,188.177 106.5,188.5 Z M 134.5,188.5 C 137.474,199.103 141.974,208.77 148,217.5C 135.916,211.249 127.083,201.916 121.5,189.5C 125.783,188.508 130.116,188.174 134.5,188.5 Z"/></g>
<g><path style="opacity:0.972" fill="#e9ddb3" d="M 777.5,213.5 C 776.578,208.849 775.578,204.182 774.5,199.5C 773.503,206.134 773.17,212.8 773.5,219.5C 774.5,219.5 775.5,219.5 776.5,219.5C 775.116,220.801 773.616,220.801 772,219.5C 771.5,212.174 771.334,204.841 771.5,197.5C 773.5,197.5 775.5,197.5 777.5,197.5C 777.335,200.85 777.502,204.183 778,207.5C 780.463,204.035 783.296,200.869 786.5,198C 788.5,197.333 790.5,197.333 792.5,198C 789.317,201.015 786.317,204.182 783.5,207.5C 786.5,211.5 789.5,215.5 792.5,219.5C 790.926,220.631 789.259,220.798 787.5,220C 785.372,216.87 782.872,214.037 780,211.5C 779.292,212.381 778.458,213.047 777.5,213.5 Z"/></g>
<g><path style="opacity:1" fill="#e3d4a4" d="M 777.5,213.5 C 777.795,215.735 777.461,217.735 776.5,219.5C 775.5,219.5 774.5,219.5 773.5,219.5C 773.17,212.8 773.503,206.134 774.5,199.5C 775.578,204.182 776.578,208.849 777.5,213.5 Z"/></g>
<g><path style="opacity:1" fill="#e4d5a5" d="M 928.5,198.5 C 930.371,198.859 931.871,199.859 933,201.5C 934.443,206.212 933.277,210.045 929.5,213C 931.54,215.185 932.874,217.685 933.5,220.5C 929.299,220.149 926.299,217.983 924.5,214C 922.866,213.506 921.199,213.34 919.5,213.5C 917.964,215.025 916.964,217.025 916.5,219.5C 915.503,212.532 915.17,205.532 915.5,198.5C 919.833,198.5 924.167,198.5 928.5,198.5 Z M 925.5,201.5 C 929.02,203.737 929.353,206.404 926.5,209.5C 924.167,209.5 921.833,209.5 919.5,209.5C 919.5,206.833 919.5,204.167 919.5,201.5C 921.5,201.5 923.5,201.5 925.5,201.5 Z"/></g>
<g><path style="opacity:0.283" fill="#f0eccc" d="M 925.5,201.5 C 923.5,201.5 921.5,201.5 919.5,201.5C 919.5,204.167 919.5,206.833 919.5,209.5C 921.833,209.5 924.167,209.5 926.5,209.5C 924.052,210.473 921.385,210.806 918.5,210.5C 918.5,207.167 918.5,203.833 918.5,200.5C 921.059,200.198 923.393,200.532 925.5,201.5 Z"/></g>
<g><path style="opacity:1" fill="#e5d7a8" d="M 363.5,215.5 C 359.366,214.515 355.032,214.182 350.5,214.5C 350.993,212.194 351.326,209.861 351.5,207.5C 352.654,204.521 353.82,201.521 355,198.5C 356.726,197.424 358.559,197.257 360.5,198C 364.712,205.144 368.045,212.644 370.5,220.5C 366.576,221.003 364.243,219.336 363.5,215.5 Z M 357.5,203.5 C 359.567,205.318 360.9,207.651 361.5,210.5C 359.016,211.861 356.683,211.694 354.5,210C 355.914,208.007 356.914,205.84 357.5,203.5 Z"/></g>
<g><path style="opacity:1" fill="#e9ddb3" d="M 560.5,219.5 C 559.012,211.678 555.678,204.512 550.5,198C 552.5,197.333 554.5,197.333 556.5,198C 558.333,201.167 560.167,204.333 562,207.5C 563.833,204.5 565.667,201.5 567.5,198.5C 569.421,197.359 571.421,197.192 573.5,198C 567.773,204.511 564.773,212.011 564.5,220.5C 562.901,220.768 561.568,220.434 560.5,219.5 Z"/></g>
<g><path style="opacity:0.434" fill="#eee5c2" d="M 416.5,206.5 C 420.167,206.5 423.833,206.5 427.5,206.5C 427.5,207.833 427.5,209.167 427.5,210.5C 423.833,210.5 420.167,210.5 416.5,210.5C 419.689,209.834 423.023,209.167 426.5,208.5C 423.023,207.833 419.689,207.166 416.5,206.5 Z"/></g>
<g><path style="opacity:1" fill="#e5d7a9" d="M 520.5,197.5 C 521.873,197.343 523.207,197.51 524.5,198C 526.745,200.731 528.745,203.564 530.5,206.5C 531.396,209.069 533.062,211.069 535.5,212.5C 536.494,207.544 536.827,202.544 536.5,197.5C 537.833,197.5 539.167,197.5 540.5,197.5C 540.814,205.087 540.481,212.587 539.5,220C 538.5,220.667 537.5,220.667 536.5,220C 532.621,215.626 528.954,211.126 525.5,206.5C 525.44,205.957 525.107,205.624 524.5,205.5C 523.507,210.12 523.173,214.786 523.5,219.5C 522.5,219.5 521.5,219.5 520.5,219.5C 520.5,212.167 520.5,204.833 520.5,197.5 Z"/></g>
<g><path style="opacity:0.515" fill="#ece4be" d="M 536.5,197.5 C 536.827,202.544 536.494,207.544 535.5,212.5C 533.062,211.069 531.396,209.069 530.5,206.5C 532.129,207.625 533.629,208.959 535,210.5C 535.175,205.981 535.675,201.647 536.5,197.5 Z"/></g>
<g><path style="opacity:0.722" fill="#ebe0b8" d="M 592.5,210.5 C 592.5,211.5 592.5,212.5 592.5,213.5C 591.167,213.5 589.833,213.5 588.5,213.5C 588.5,215.5 588.5,217.5 588.5,219.5C 586.928,216.785 585.928,213.785 585.5,210.5C 583.758,206.456 582.091,202.289 580.5,198C 582.579,197.192 584.579,197.359 586.5,198.5C 587.897,203.192 589.397,207.859 591,212.5C 591.278,211.584 591.778,210.918 592.5,210.5 Z"/></g>
<g><path style="opacity:1" fill="#e2d29f" d="M 585.5,210.5 C 585.201,208.396 585.534,206.396 586.5,204.5C 587.692,206.742 588.692,209.075 589.5,211.5C 589,211.833 588.5,212.167 588,212.5C 586.989,211.944 586.156,211.278 585.5,210.5 Z"/></g>
<g><path style="opacity:1" fill="#e1d19d" d="M 644.5,197.5 C 645.5,197.5 646.5,197.5 647.5,197.5C 647.831,204.863 647.497,212.197 646.5,219.5C 645.513,216.232 645.18,212.898 645.5,209.5C 640.968,209.182 636.634,209.515 632.5,210.5C 631.834,213.358 631.167,216.358 630.5,219.5C 629.167,212.5 629.167,205.5 630.5,198.5C 631.168,201.306 631.834,203.972 632.5,206.5C 636.298,207.483 640.298,207.817 644.5,207.5C 644.5,204.167 644.5,200.833 644.5,197.5 Z"/></g>
<g><path style="opacity:0.49" fill="#f0e9ca" d="M 632.5,197.5 C 633.477,200.287 633.81,203.287 633.5,206.5C 636.833,206.5 640.167,206.5 643.5,206.5C 643.19,203.287 643.523,200.287 644.5,197.5C 644.5,200.833 644.5,204.167 644.5,207.5C 640.298,207.817 636.298,207.483 632.5,206.5C 632.5,203.5 632.5,200.5 632.5,197.5 Z"/></g>
<g><path style="opacity:1" fill="#e3d3a1" d="M 663.5,197.5 C 668.5,197.5 673.5,197.5 678.5,197.5C 678.5,198.5 678.5,199.5 678.5,200.5C 674.629,200.185 670.962,200.518 667.5,201.5C 667.5,203.167 667.5,204.833 667.5,206.5C 670.689,207.166 674.023,207.833 677.5,208.5C 674.023,209.167 670.689,209.834 667.5,210.5C 666.539,212.265 666.205,214.265 666.5,216.5C 670.5,216.5 674.5,216.5 678.5,216.5C 680.552,217.053 680.885,218.053 679.5,219.5C 674.167,219.5 668.833,219.5 663.5,219.5C 663.5,212.167 663.5,204.833 663.5,197.5 Z"/></g>
<g><path style="opacity:0.433" fill="#efe5c5" d="M 667.5,206.5 C 671.167,206.5 674.833,206.5 678.5,206.5C 678.5,207.833 678.5,209.167 678.5,210.5C 674.833,210.5 671.167,210.5 667.5,210.5C 670.689,209.834 674.023,209.167 677.5,208.5C 674.023,207.833 670.689,207.166 667.5,206.5 Z"/></g>
<g><path style="opacity:1" fill="#e3d3a1" d="M 725.5,197.5 C 730.833,197.5 736.167,197.5 741.5,197.5C 741.5,198.833 741.5,200.167 741.5,201.5C 737.5,201.5 733.5,201.5 729.5,201.5C 729.5,203.167 729.5,204.833 729.5,206.5C 732.689,207.166 736.023,207.833 739.5,208.5C 736.023,209.167 732.689,209.834 729.5,210.5C 728.189,212.56 728.189,214.726 729.5,217C 733.633,216.906 737.299,217.74 740.5,219.5C 735.5,219.5 730.5,219.5 725.5,219.5C 725.5,212.167 725.5,204.833 725.5,197.5 Z"/></g>
<g><path style="opacity:0.429" fill="#eee6c4" d="M 729.5,206.5 C 733.167,206.5 736.833,206.5 740.5,206.5C 740.5,207.833 740.5,209.167 740.5,210.5C 736.833,210.5 733.167,210.5 729.5,210.5C 732.689,209.834 736.023,209.167 739.5,208.5C 736.023,207.833 732.689,207.166 729.5,206.5 Z"/></g>
<g><path style="opacity:0.921" fill="#e8dbb0" d="M 173.5,188.5 C 179.734,187.193 186.068,187.193 192.5,188.5C 198.357,187.281 204.357,187.281 210.5,188.5C 215.305,187.513 220.305,187.179 225.5,187.5C 215.406,205.913 200.072,217.58 179.5,222.5C 180.303,221.577 180.47,220.577 180,219.5C 179.667,219.833 179.333,220.167 179,220.5C 176.993,219.331 174.827,218.665 172.5,218.5C 181.12,210.434 186.787,200.601 189.5,189C 184.177,188.501 178.844,188.334 173.5,188.5 Z M 210.5,188.5 C 214.182,188.335 217.848,188.501 221.5,189C 214.096,200.762 204.096,209.095 191.5,214C 199.889,207.065 206.223,198.565 210.5,188.5 Z M 192.5,188.5 C 197.179,188.334 201.845,188.501 206.5,189C 202.009,198.487 195.676,206.487 187.5,213C 184.89,214.481 182.223,215.648 179.5,216.5C 185.984,208.197 190.317,198.864 192.5,188.5 Z"/></g>
<g><path style="opacity:1" fill="#e8dcb2" d="M 329.5,201.5 C 330.496,201.414 331.329,201.748 332,202.5C 333.684,208.943 334.851,208.943 335.5,202.5C 337.174,206.709 336.174,210.376 332.5,213.5C 333.833,215.5 335.167,217.5 336.5,219.5C 334.926,220.631 333.259,220.798 331.5,220C 330.335,218.008 329.002,216.175 327.5,214.5C 328.5,214.5 329.5,214.5 330.5,214.5C 330.5,213.5 330.5,212.5 330.5,211.5C 327.311,211.142 324.311,210.475 321.5,209.5C 324.187,209.664 326.854,209.497 329.5,209C 332.086,206.506 332.086,204.006 329.5,201.5 Z"/></g>
<g><path style="opacity:0.345" fill="#f0eacb" d="M 520.5,197.5 C 520.5,204.833 520.5,212.167 520.5,219.5C 521.5,219.5 522.5,219.5 523.5,219.5C 523.173,214.786 523.507,210.12 524.5,205.5C 525.107,205.624 525.44,205.957 525.5,206.5C 524.514,210.97 524.181,215.637 524.5,220.5C 522.833,220.5 521.167,220.5 519.5,220.5C 519.175,212.648 519.508,204.982 520.5,197.5 Z"/></g>
<g><path style="opacity:1" fill="#e5d8aa" d="M 839.5,211.5 C 839.34,209.801 839.506,208.134 840,206.5C 840.383,207.056 840.883,207.389 841.5,207.5C 843.725,204.738 845.725,201.738 847.5,198.5C 849.167,197.167 850.833,197.167 852.5,198.5C 847.413,204.662 844.58,211.662 844,219.5C 842.644,220.38 841.144,220.714 839.5,220.5C 839.5,217.5 839.5,214.5 839.5,211.5 Z"/></g>
<g><path style="opacity:1" fill="#e2d3a0" d="M 597.5,197.5 C 599.483,197.157 600.817,197.824 601.5,199.5C 602.001,204.674 603.667,209.341 606.5,213.5C 607.086,213.291 607.586,212.957 608,212.5C 609.816,207.554 611.316,202.554 612.5,197.5C 613.5,197.5 614.5,197.5 615.5,197.5C 613.44,204.18 611.274,210.847 609,217.5C 607.951,219.107 606.451,219.773 604.5,219.5C 603.167,214.5 601.833,209.5 600.5,204.5C 598.876,204.36 597.71,205.027 597,206.5C 595.316,210.716 594.149,215.049 593.5,219.5C 591.833,220.833 590.167,220.833 588.5,219.5C 588.5,217.5 588.5,215.5 588.5,213.5C 589.833,213.5 591.167,213.5 592.5,213.5C 592.5,212.5 592.5,211.5 592.5,210.5C 594.721,206.522 596.388,202.189 597.5,197.5 Z"/></g>
<g><path style="opacity:0.588" fill="#eee7c5" d="M 612.5,197.5 C 611.316,202.554 609.816,207.554 608,212.5C 607.586,212.957 607.086,213.291 606.5,213.5C 603.667,209.341 602.001,204.674 601.5,199.5C 603.144,203.409 604.81,207.409 606.5,211.5C 608.328,206.66 610.328,201.993 612.5,197.5 Z"/></g>
<g><path style="opacity:0.49" fill="#efe8c7" d="M 615.5,197.5 C 616.097,197.735 616.43,198.235 616.5,199C 614.333,205.5 612.167,212 610,218.5C 608.38,220.632 606.546,220.965 604.5,219.5C 606.451,219.773 607.951,219.107 609,217.5C 611.274,210.847 613.44,204.18 615.5,197.5 Z"/></g>
<g><path style="opacity:0.514" fill="#efe8c8" d="M 820.5,200.5 C 817.038,201.482 813.371,201.815 809.5,201.5C 809.5,203.167 809.5,204.833 809.5,206.5C 812.85,206.335 816.183,206.502 819.5,207C 820.833,208 820.833,209 819.5,210C 816.183,210.498 812.85,210.665 809.5,210.5C 809.5,212.5 809.5,214.5 809.5,216.5C 808.532,214.393 808.198,212.059 808.5,209.5C 821.833,208.833 821.833,208.167 808.5,207.5C 808.5,205.167 808.5,202.833 808.5,200.5C 812.5,200.5 816.5,200.5 820.5,200.5 Z"/></g>
<g><path style="opacity:0.525" fill="#efe9c8" d="M 604.5,219.5 C 602.204,215.131 600.371,210.464 599,205.5C 597.237,210.306 595.404,214.972 593.5,219.5C 594.149,215.049 595.316,210.716 597,206.5C 597.71,205.027 598.876,204.36 600.5,204.5C 601.833,209.5 603.167,214.5 604.5,219.5 Z"/></g>
<g><path style="opacity:1" fill="#eadeb7" d="M 647.5,197.5 C 648.492,204.982 648.825,212.648 648.5,220.5C 646.856,220.714 645.356,220.38 644,219.5C 643.502,216.518 643.335,213.518 643.5,210.5C 640.167,210.5 636.833,210.5 633.5,210.5C 633.167,210.5 632.833,210.5 632.5,210.5C 636.634,209.515 640.968,209.182 645.5,209.5C 645.18,212.898 645.513,216.232 646.5,219.5C 647.497,212.197 647.831,204.863 647.5,197.5 Z"/></g>
<g><path style="opacity:1" fill="#e4d5a4" d="M 693.5,197.5 C 697.167,197.5 700.833,197.5 704.5,197.5C 705.834,199.159 707.501,200.492 709.5,201.5C 710.48,204.086 710.813,206.753 710.5,209.5C 709.71,210.794 708.71,211.961 707.5,213C 708.965,214.774 710.298,216.608 711.5,218.5C 710.432,219.434 709.099,219.768 707.5,219.5C 705.967,217.645 704.3,215.812 702.5,214C 700.866,213.506 699.199,213.34 697.5,213.5C 696.539,215.265 696.205,217.265 696.5,219.5C 695.5,219.5 694.5,219.5 693.5,219.5C 693.5,212.167 693.5,204.833 693.5,197.5 Z M 697.5,201.5 C 700.187,201.336 702.854,201.503 705.5,202C 707.789,204.532 707.456,206.865 704.5,209C 702.19,209.497 699.857,209.663 697.5,209.5C 697.5,206.833 697.5,204.167 697.5,201.5 Z"/></g>
<g><path style="opacity:1" fill="#e5d7a9" d="M 820.5,200.5 C 816.5,200.5 812.5,200.5 808.5,200.5C 808.5,202.833 808.5,205.167 808.5,207.5C 821.833,208.167 821.833,208.833 808.5,209.5C 808.198,212.059 808.532,214.393 809.5,216.5C 813.268,215.213 816.935,215.213 820.5,216.5C 820.5,217.5 820.5,218.5 820.5,219.5C 815.167,219.5 809.833,219.5 804.5,219.5C 803.508,212.352 803.175,205.019 803.5,197.5C 809.5,197.5 815.5,197.5 821.5,197.5C 821.737,198.791 821.404,199.791 820.5,200.5 Z"/></g>
<g><path style="opacity:1" fill="#eadcb5" d="M 1034.5,208.5 C 1033.98,210.708 1032.64,212.208 1030.5,213C 1027.18,213.498 1023.85,213.665 1020.5,213.5C 1022.97,212.683 1025.64,212.183 1028.5,212C 1025.75,211.057 1023.08,210.224 1020.5,209.5C 1023.17,209.5 1025.83,209.5 1028.5,209.5C 1028.92,210.124 1029.58,210.457 1030.5,210.5C 1031.87,209.775 1033.2,209.108 1034.5,208.5 Z"/></g>
<g><path style="opacity:1" fill="#e4d6a6" d="M 335.5,202.5 C 334.851,208.943 333.684,208.943 332,202.5C 331.329,201.748 330.496,201.414 329.5,201.5C 326.833,201.5 324.167,201.5 321.5,201.5C 321.5,204.167 321.5,206.833 321.5,209.5C 324.311,210.475 327.311,211.142 330.5,211.5C 330.5,212.5 330.5,213.5 330.5,214.5C 329.5,214.5 328.5,214.5 327.5,214.5C 327.5,214.167 327.5,213.833 327.5,213.5C 321.673,210.979 319.34,212.979 320.5,219.5C 319.5,219.5 318.5,219.5 317.5,219.5C 316.508,212.352 316.175,205.019 316.5,197.5C 321.511,197.334 326.511,197.501 331.5,198C 333.751,198.748 335.084,200.248 335.5,202.5 Z"/></g>
<g><path style="opacity:1" fill="#e3d4a3" d="M 503.5,208.5 C 505.592,211.088 506.925,214.088 507.5,217.5C 507.53,218.497 507.03,219.164 506,219.5C 504.699,217.845 503.199,216.511 501.5,215.5C 497.353,214.675 493.019,214.175 488.5,214C 489.833,213.333 489.833,212.667 488.5,212C 489.167,211.833 489.833,211.667 490.5,211.5C 493.783,212.327 497.116,212.66 500.5,212.5C 499.943,210.051 499.943,207.718 500.5,205.5C 501.288,206.77 502.288,207.77 503.5,208.5 Z"/></g>
<g><path style="opacity:1" fill="#e1d19e" d="M 560.5,219.5 C 560.5,215.833 560.5,212.167 560.5,208.5C 561.978,208.238 563.311,208.571 564.5,209.5C 563.583,212.758 563.249,216.091 563.5,219.5C 562.5,219.5 561.5,219.5 560.5,219.5 Z"/></g>
<g><path style="opacity:1" fill="#ebe0b9" d="M 351.5,207.5 C 351.326,209.861 350.993,212.194 350.5,214.5C 355.032,214.182 359.366,214.515 363.5,215.5C 359.774,215.177 356.107,215.511 352.5,216.5C 351.246,220.56 348.912,221.394 345.5,219C 347.672,215.153 349.672,211.319 351.5,207.5 Z"/></g>
<g><path style="opacity:1" fill="#e2d4a2" d="M 387.5,210.5 C 387.5,211.833 387.5,213.167 387.5,214.5C 389.288,214.215 390.955,214.548 392.5,215.5C 391.754,216.736 391.421,218.07 391.5,219.5C 390.167,220.833 388.833,220.833 387.5,219.5C 386.929,216.523 385.929,213.69 384.5,211C 385.352,209.272 386.352,209.105 387.5,210.5 Z"/></g>
<g><path style="opacity:1" fill="#e9ddb4" d="M 493.5,199.5 C 493.5,200.5 493.5,201.5 493.5,202.5C 495.262,202.357 496.929,202.691 498.5,203.5C 499.429,202.311 499.762,200.978 499.5,199.5C 501.592,202.088 502.925,205.088 503.5,208.5C 502.288,207.77 501.288,206.77 500.5,205.5C 499.943,207.718 499.943,210.051 500.5,212.5C 497.116,212.66 493.783,212.327 490.5,211.5C 489.833,211.667 489.167,211.833 488.5,212C 489.833,212.667 489.833,213.333 488.5,214C 493.019,214.175 497.353,214.675 501.5,215.5C 497.774,215.177 494.107,215.511 490.5,216.5C 490.058,217.739 489.391,218.739 488.5,219.5C 487.5,219.5 486.5,219.5 485.5,219.5C 485.5,218.5 485.5,217.5 485.5,216.5C 487.797,210.584 490.463,204.918 493.5,199.5 Z M 495.5,203.5 C 497.447,205.216 498.781,207.383 499.5,210C 497.567,210.251 495.734,210.751 494,211.5C 494.153,208.826 494.653,206.16 495.5,203.5 Z"/></g>
<g><path style="opacity:0.562" fill="#ece3be" d="M 327.5,213.5 C 322.094,212.735 320.094,215.069 321.5,220.5C 319.901,220.768 318.568,220.434 317.5,219.5C 318.5,219.5 319.5,219.5 320.5,219.5C 319.34,212.979 321.673,210.979 327.5,213.5 Z"/></g>
<g><path style="opacity:0.049" fill="#f3efd6" d="M 445.5,197.5 C 446.49,203.31 446.823,209.31 446.5,215.5C 450.371,215.185 454.038,215.518 457.5,216.5C 453.5,216.5 449.5,216.5 445.5,216.5C 445.5,210.167 445.5,203.833 445.5,197.5 Z"/></g>
<g><path style="opacity:0.036" fill="#f6f3de" d="M 667.5,210.5 C 667.5,212.167 667.5,213.833 667.5,215.5C 671.371,215.185 675.038,215.518 678.5,216.5C 674.5,216.5 670.5,216.5 666.5,216.5C 666.205,214.265 666.539,212.265 667.5,210.5 Z"/></g>
<g><path style="opacity:0.926" fill="#ede3bf" d="M 729.5,210.5 C 729.181,212.75 729.681,214.75 731,216.5C 734.073,215.383 737.24,215.216 740.5,216C 742.495,216.924 742.828,218.09 741.5,219.5C 741.167,219.5 740.833,219.5 740.5,219.5C 737.299,217.74 733.633,216.906 729.5,217C 728.189,214.726 728.189,212.56 729.5,210.5 Z"/></g>
<g><path style="opacity:1" fill="#e8dbb0" d="M 986.5,213.5 C 989.073,216.25 992.073,216.916 995.5,215.5C 995.389,216.117 995.056,216.617 994.5,217C 996.058,217.21 997.391,217.71 998.5,218.5C 996.71,219.997 994.544,220.664 992,220.5C 988.832,220.894 986.332,219.894 984.5,217.5C 985.675,217.719 986.675,217.386 987.5,216.5C 986.873,215.583 986.539,214.583 986.5,213.5 Z"/></g>
<g><path style="opacity:0.31" fill="#f1edce" d="M 457.5,216.5 C 458.434,217.568 458.768,218.901 458.5,220.5C 452.974,220.821 447.64,220.488 442.5,219.5C 447.5,219.5 452.5,219.5 457.5,219.5C 457.5,218.5 457.5,217.5 457.5,216.5 Z"/></g>
<g><path style="opacity:0.286" fill="#f2eccf" d="M 485.5,216.5 C 485.5,217.5 485.5,218.5 485.5,219.5C 486.5,219.5 487.5,219.5 488.5,219.5C 486.815,220.844 485.148,220.677 483.5,219C 484.066,218.005 484.733,217.172 485.5,216.5 Z"/></g>
<g><path style="opacity:0.294" fill="#f1ecce" d="M 501.5,215.5 C 503.199,216.511 504.699,217.845 506,219.5C 507.03,219.164 507.53,218.497 507.5,217.5C 508.404,218.209 508.737,219.209 508.5,220.5C 504.576,221.003 502.243,219.336 501.5,215.5 Z"/></g>
<g><path style="opacity:0.31" fill="#f0eccb" d="M 663.5,197.5 C 663.5,204.833 663.5,212.167 663.5,219.5C 668.833,219.5 674.167,219.5 679.5,219.5C 674.025,220.489 668.358,220.822 662.5,220.5C 662.175,212.648 662.508,204.982 663.5,197.5 Z"/></g>
<g><path style="opacity:0.31" fill="#f3f0d5" d="M 711.5,218.5 C 712.043,218.56 712.376,218.893 712.5,219.5C 710.701,220.788 709.035,220.788 707.5,219.5C 709.099,219.768 710.432,219.434 711.5,218.5 Z"/></g>
<g><path style="opacity:0.31" fill="#f1ecce" d="M 725.5,197.5 C 725.5,204.833 725.5,212.167 725.5,219.5C 730.5,219.5 735.5,219.5 740.5,219.5C 740.833,219.5 741.167,219.5 741.5,219.5C 736.025,220.489 730.358,220.822 724.5,220.5C 724.175,212.648 724.508,204.982 725.5,197.5 Z"/></g>
<g><path style="opacity:0.31" fill="#f1ecce" d="M 820.5,216.5 C 821.434,217.568 821.768,218.901 821.5,220.5C 815.642,220.822 809.975,220.489 804.5,219.5C 809.833,219.5 815.167,219.5 820.5,219.5C 820.5,218.5 820.5,217.5 820.5,216.5 Z"/></g>
<g><path style="opacity:1" fill="#e2d3a0" d="M 167.5,220.5 C 168.93,219.463 170.597,218.796 172.5,218.5C 174.827,218.665 176.993,219.331 179,220.5C 179.333,220.167 179.667,219.833 180,219.5C 180.47,220.577 180.303,221.577 179.5,222.5C 178.833,222.5 178.167,222.5 177.5,222.5C 170.515,223.089 163.515,223.422 156.5,223.5C 154.265,223.795 152.265,223.461 150.5,222.5C 147.188,221.39 143.855,220.056 140.5,218.5C 140.808,217.692 141.308,217.025 142,216.5C 147.855,218.915 153.689,220.415 159.5,221C 162.367,221.801 165.034,221.634 167.5,220.5 Z"/></g>
<g><path style="opacity:0.231" fill="#f2eed2" d="M 177.5,222.5 C 170.557,224.496 163.557,224.83 156.5,223.5C 163.515,223.422 170.515,223.089 177.5,222.5 Z"/></g>
<g><path style="opacity:1" fill="#e8dbb2" d="M 122.5,223.5 C 128.994,227.084 135.661,230.084 142.5,232.5C 135.544,232.506 129.211,230.506 123.5,226.5C 122.614,225.675 122.281,224.675 122.5,223.5 Z"/></g>
<g><path style="opacity:0.624" fill="#ede5c0" d="M 184.5,232.5 C 181.829,234.118 178.829,234.785 175.5,234.5C 178.273,233.343 181.273,232.676 184.5,232.5 Z"/></g>
<g><path style="opacity:0.268" fill="#efe8c7" d="M 142.5,232.5 C 153.42,234.207 164.42,234.874 175.5,234.5C 172.038,235.482 168.371,235.815 164.5,235.5C 163.833,235.5 163.5,235.833 163.5,236.5C 163.167,236.5 162.833,236.5 162.5,236.5C 158.326,235.718 153.992,235.051 149.5,234.5C 146.775,235.485 144.442,234.818 142.5,232.5 Z"/></g>
<g><path style="opacity:0.559" fill="#e9e4b8" d="M 164.5,235.5 C 164.171,248.011 164.505,260.345 165.5,272.5C 165.44,273.043 165.107,273.376 164.5,273.5C 163.501,261.185 163.168,248.851 163.5,236.5C 163.5,235.833 163.833,235.5 164.5,235.5 Z"/></g>
</svg>
