<svg width="2303" height="1259" viewBox="0 0 2303 1259" fill="none" xmlns="http://www.w3.org/2000/svg">
<path fill-rule="evenodd" clip-rule="evenodd" d="M0 77C0 34.4741 34.4741 0 77 0H2226C2268.53 0 2303 34.4741 2303 77V1182C2303 1224.53 2268.53 1259 2226 1259H77C34.474 1259 0 1224.53 0 1182V77ZM2151.67 629.027C2151.67 601.057 2174.35 578.383 2202.32 578.383H2205.25C2233.22 578.383 2255.9 601.057 2255.9 629.027C2255.9 656.997 2233.22 679.671 2205.25 679.671H2202.32C2174.35 679.671 2151.67 656.997 2151.67 629.027ZM157 75C127.177 75 103 99.1766 103 129V1131C103 1160.82 127.177 1185 157 1185H2034C2063.82 1185 2088 1160.82 2088 1131V129C2088 99.1766 2063.82 75 2034 75H157Z" fill="#E4E4E4"/>
</svg>
