<svg width="279" height="259" viewBox="0 0 279 259" fill="none" xmlns="http://www.w3.org/2000/svg">
<path fill-rule="evenodd" clip-rule="evenodd" d="M128.809 2.52679C112.71 4.64987 97.3299 6.678 65.2367 32.8783C62.2734 35.2975 58.6846 38.1492 54.9219 41.139C43.5594 50.1677 30.6107 60.4569 28.5083 63.9043C28.1727 64.4546 27.8428 64.995 27.5183 65.5265C12.005 90.9332 8.96723 95.9081 0.15534 186.927C-2.13678 210.603 20.0708 265.342 124.796 258.396C168.186 255.518 188.911 250.27 223.566 216.719C258.221 183.168 294.103 139.596 271.825 96.4592C249.547 53.3221 219.843 26.9606 197.565 14.9781C193.713 12.9066 190.794 11.0309 188.198 9.36321C178.781 3.31347 173.623 0 143.694 0C138.371 1.26588 133.559 1.90047 128.809 2.52679ZM74.1707 118.779C74.1707 94.5853 97.0849 75.0181 125.417 75.0181C153.748 75.0181 176.663 94.5853 176.663 118.779C176.663 151.599 125.417 200.048 125.417 200.048C125.417 200.048 74.1707 151.599 74.1707 118.779ZM107.115 118.779C107.115 127.406 115.314 134.407 125.417 134.407C135.519 134.407 143.719 127.406 143.719 118.779C143.719 110.152 135.519 103.15 125.417 103.15C115.314 103.15 107.115 110.152 107.115 118.779Z" fill="#ECD873"/>
</svg>
