<svg width="31" height="28" viewBox="0 0 31 28" fill="none" xmlns="http://www.w3.org/2000/svg">
<path d="M14.5604 1.57914C14.8799 0.702207 16.1201 0.702205 16.4396 1.57914L19.4139 9.74352C19.5578 10.1384 19.9332 10.4012 20.3535 10.4012H29.7124C30.7086 10.4012 31.0922 11.6987 30.2562 12.2404L22.8889 17.0144C22.4978 17.2679 22.3336 17.758 22.4932 18.1959L25.3522 26.0439C25.6806 26.9454 24.674 27.7472 23.8688 27.2254L16.0438 22.1548C15.713 21.9404 15.287 21.9404 14.9562 22.1548L7.1312 27.2254C6.32597 27.7472 5.31937 26.9454 5.64781 26.0439L8.50685 18.1959C8.66639 17.758 8.50222 17.2679 8.11106 17.0144L0.743751 12.2404C-0.0922392 11.6987 0.291398 10.4012 1.28756 10.4012H10.6465C11.0668 10.4012 11.4422 10.1384 11.5861 9.74352L14.5604 1.57914Z" fill="#F06262"/>
</svg>
