<svg width="2172" height="2639" viewBox="0 0 2172 2639" fill="none" xmlns="http://www.w3.org/2000/svg">
<path fill-rule="evenodd" clip-rule="evenodd" d="M1394.5 2638.5C1714.05 2501.5 2172 1626.98 2172 1191.5C2172 756.023 1823.9 403 1394.5 403C965.099 403 617 756.023 617 1191.5C617 1626.98 1162.05 2515 1394.5 2638.5ZM1395.05 1573.5C1614.59 1573.5 1792.55 1401.35 1792.55 1189C1792.55 976.646 1614.59 804.5 1395.05 804.5C1175.52 804.5 997.553 976.646 997.553 1189C997.553 1401.35 1175.52 1573.5 1395.05 1573.5Z" fill="#384F46"/>
<path d="M69.7019 483.39C46.0703 458.719 27.8239 429.699 16.0056 397.989C4.18738 366.279 -0.971057 332.5 0.825129 298.584C2.62132 264.668 11.3369 231.278 26.4738 200.324C41.6107 169.371 62.8722 141.459 89.043 118.185L179.071 38.0042C195.398 23.4738 214.893 12.6772 236.052 6.44789C257.212 0.218565 279.469 -1.27685 301.106 2.07705L662.711 48.4067L655.265 143.77L451.801 159.652L841.027 566.332L772.851 626.995L532.735 376.055L499.059 406.015L604.928 516.698L536.789 577.327L430.922 466.643L397.244 496.604L478.98 582.023L410.802 642.687L329.067 557.267L295.415 587.402L351.561 646.215L283.378 706.764L227.232 647.953L69.7064 483.321L69.7019 483.39ZM884.049 512.357C904.59 523.664 921.058 540.65 931.372 561.172C941.687 581.693 945.386 604.83 942.004 627.661C938.621 650.493 928.308 671.996 912.367 689.456C896.425 706.916 875.57 719.55 852.433 725.764C833.67 730.748 814.037 731.352 795.181 727.525C776.326 723.698 758.798 715.552 744.069 703.771C729.341 691.989 717.84 676.916 710.534 659.816C703.227 642.716 700.327 624.088 702.077 605.495L671.444 573.631C663.539 599.492 662.844 626.758 669.431 652.656C676.018 678.554 689.651 702.161 708.944 721.077C728.237 739.992 752.502 753.542 779.272 760.347C806.043 767.153 834.363 766.973 861.354 759.824C900.886 749.272 934.96 724.455 956.403 690.596C977.847 656.737 984.989 616.475 976.327 578.284C967.665 540.094 943.873 506.952 909.959 485.833C876.045 464.714 834.654 457.265 794.495 465.054L825.353 497.316C846.049 497.352 866.266 502.533 884.049 512.357Z" fill="#384F46"/>
</svg>
